<svg xmlns="http://www.w3.org/2000/svg" viewBox="0 0 800 800" width="800" height="800"><defs><clipPath id="c"><circle cx="400" cy="400" r="400"></circle></clipPath></defs><g clip-path="url(#c)"><path fill="#bcd9f6" d="M375 0h50v24h-50zM362 1h13v23h-13zM425 1h13v23h-13zM354 2h8v24h-8zM438 2h9v24h-9zM345 3h9v24h-9zM447 3h8v24h-8zM339 4h6v24h-6zM455 4h7v24h-7zM332 5h7v24h-7zM462 5h6v24h-6zM327 6h5v24h-5zM468 6h5v24h-5zM321 7h6v24h-6zM473 7h6v24h-6zM317 8h4v24h-4zM479 8h4v24h-4zM312 9h5v24h-5zM483 9h5v24h-5zM308 10h4v24h-4zM488 10h4v24h-4zM304 11h4v24h-4zM492 11h4v24h-4zM300 12h4v24h-4zM496 12h4v24h-4zM296 13h4v24h-4zM500 13h4v24h-4zM293 14h3v24h-3zM504 14h4v24h-4zM289 15h4v24h-4zM508 15h3v25h-3zM285 16h4v25h-4zM511 16h4v24h-4zM282 17h3v25h-3zM515 17h3v25h-3zM279 18h3v25h-3zM518 18h3v25h-3zM276 19h3v25h-3zM521 19h3v25h-3zM273 20h3v25h-3zM524 20h3v25h-3zM270 21h3v25h-3zM527 21h3v25h-3zM267 22h3v25h-3zM530 22h3v25h-3zM264 23h3v25h-3zM533 23h3v25h-3zM261 24h3v25h-3zM362 24h12v1h-12zM426 24h12v1h-12zM536 24h3v25h-3zM259 25h2v25h-2zM539 25h2v25h-2zM256 26h3v25h-3zM446 26h1v1h-1zM541 26h3v25h-3zM254 27h2v25h-2zM345 27h1v1h-1zM454 27h1v1h-1zM544 27h2v25h-2zM251 28h3v25h-3zM461 28h1v1h-1zM546 28h3v25h-3zM249 29h2v26h-2zM332 29h2v1h-2zM466 29h2v1h-2zM549 29h2v26h-2zM246 30h3v25h-3zM327 30h1v1h-1zM472 30h1v1h-1zM551 30h3v25h-3zM244 31h2v26h-2zM321 31h3v1h-3zM477 31h2v1h-2zM554 31h2v26h-2zM241 32h3v26h-3zM317 32h2v1h-2zM481 32h2v1h-2zM556 32h3v26h-3zM239 33h2v26h-2zM312 33h2v1h-2zM486 33h2v1h-2zM559 33h2v26h-2zM237 34h2v26h-2zM308 34h2v1h-2zM490 34h2v1h-2zM561 34h2v26h-2zM235 35h2v26h-2zM304 35h2v1h-2zM494 35h2v1h-2zM563 35h2v26h-2zM233 36h2v26h-2zM300 36h2v1h-2zM498 36h2v1h-2zM565 36h3v26h-3zM230 37h3v26h-3zM296 37h3v1h-3zM501 37h3v1h-3zM568 37h2v26h-2zM228 38h2v26h-2zM293 38h2v1h-2zM505 38h3v1h-3zM570 38h2v26h-2zM226 39h2v26h-2zM289 39h3v1h-3zM572 39h2v26h-2zM224 40h2v27h-2zM512 40h3v1h-3zM574 40h2v26h-2zM222 41h2v27h-2zM576 41h2v27h-2zM220 42h2v27h-2zM578 42h2v27h-2zM218 43h2v27h-2zM580 43h2v27h-2zM216 44h2v27h-2zM582 44h2v27h-2zM214 45h2v27h-2zM273 45h1v1h-1zM584 45h2v27h-2zM212 46h2v27h-2zM270 46h1v1h-1zM529 46h1v1h-1zM586 46h2v27h-2zM210 47h2v27h-2zM267 47h1v1h-1zM532 47h1v1h-1zM588 47h2v27h-2zM209 48h1v27h-1zM264 48h1v1h-1zM535 48h1v1h-1zM590 48h1v27h-1zM207 49h2v27h-2zM261 49h2v1h-2zM537 49h2v1h-2zM591 49h2v27h-2zM205 50h2v27h-2zM259 50h1v1h-1zM540 50h1v1h-1zM593 50h2v27h-2zM203 51h2v27h-2zM256 51h2v1h-2zM542 51h2v1h-2zM595 51h2v27h-2zM201 52h2v28h-2zM254 52h1v1h-1zM545 52h1v1h-1zM597 52h2v28h-2zM200 53h1v28h-1zM251 53h2v1h-2zM547 53h2v1h-2zM599 53h1v28h-1zM198 54h2v27h-2zM600 54h2v27h-2zM196 55h2v28h-2zM246 55h2v1h-2zM552 55h2v1h-2zM602 55h2v28h-2zM195 56h1v28h-1zM604 56h1v28h-1zM193 57h2v28h-2zM605 57h2v28h-2zM191 58h2v28h-2zM241 58h1v1h-1zM558 58h1v1h-1zM607 58h2v28h-2zM190 59h1v28h-1zM239 59h1v1h-1zM560 59h1v1h-1zM609 59h1v28h-1zM188 60h2v28h-2zM610 60h2v28h-2zM186 61h2v28h-2zM612 61h2v28h-2zM185 62h1v29h-1zM567 62h1v1h-1zM614 62h1v29h-1zM183 63h2v28h-2zM230 63h1v1h-1zM569 63h1v1h-1zM615 63h2v28h-2zM182 64h1v29h-1zM228 64h1v1h-1zM571 64h1v1h-1zM617 64h1v29h-1zM180 65h2v28h-2zM226 65h1v1h-1zM573 65h1v1h-1zM618 65h2v28h-2zM179 66h1v29h-1zM575 66h1v1h-1zM620 66h1v29h-1zM177 67h2v29h-2zM621 67h2v29h-2zM176 68h1v29h-1zM623 68h1v29h-1zM174 69h2v29h-2zM624 69h2v29h-2zM173 70h1v29h-1zM626 70h1v29h-1zM171 71h2v29h-2zM627 71h2v29h-2zM170 72h1v30h-1zM629 72h1v30h-1zM169 73h1v29h-1zM212 73h1v1h-1zM587 73h1v1h-1zM630 73h1v29h-1zM167 74h2v29h-2zM210 74h1v1h-1zM589 74h1v1h-1zM631 74h2v29h-2zM166 75h1v30h-1zM633 75h1v30h-1zM164 76h2v30h-2zM207 76h1v1h-1zM592 76h1v1h-1zM634 76h2v30h-2zM163 77h1v30h-1zM205 77h1v1h-1zM594 77h1v1h-1zM636 77h1v30h-1zM162 78h1v30h-1zM203 78h1v1h-1zM596 78h1v1h-1zM637 78h1v30h-1zM160 79h2v30h-2zM638 79h2v30h-2zM159 80h1v30h-1zM640 80h1v30h-1zM158 81h1v30h-1zM198 81h1v1h-1zM601 81h1v1h-1zM641 81h1v30h-1zM156 82h2v30h-2zM642 82h2v30h-2zM155 83h1v31h-1zM644 83h1v31h-1zM154 84h1v31h-1zM645 84h1v31h-1zM153 85h1v31h-1zM646 85h2v31h-2zM151 86h2v30h-2zM191 86h1v1h-1zM608 86h1v1h-1zM648 86h1v31h-1zM150 87h1v31h-1zM649 87h1v31h-1zM149 88h1v31h-1zM188 88h1v1h-1zM611 88h1v1h-1zM650 88h1v31h-1zM147 89h2v31h-2zM186 89h1v1h-1zM613 89h1v1h-1zM651 89h2v31h-2zM146 90h1v32h-1zM653 90h1v32h-1zM145 91h1v32h-1zM183 91h1v1h-1zM616 91h1v1h-1zM654 91h1v32h-1zM144 92h1v32h-1zM655 92h1v32h-1zM143 93h1v31h-1zM180 93h1v1h-1zM619 93h1v1h-1zM656 93h1v31h-1zM141 94h2v31h-2zM657 94h2v31h-2zM140 95h1v32h-1zM659 95h1v32h-1zM139 96h1v32h-1zM660 96h1v32h-1zM138 97h1v32h-1zM661 97h1v32h-1zM137 98h1v32h-1zM174 98h1v1h-1zM625 98h1v1h-1zM662 98h1v32h-1zM136 99h1v32h-1zM663 99h1v32h-1zM134 100h2v32h-2zM171 100h1v1h-1zM628 100h1v1h-1zM664 100h2v32h-2zM133 101h1v33h-1zM666 101h1v33h-1zM132 102h1v33h-1zM667 102h1v33h-1zM131 103h1v33h-1zM167 103h1v1h-1zM632 103h1v1h-1zM668 103h1v33h-1zM130 104h1v33h-1zM669 104h1v33h-1zM129 105h1v33h-1zM670 105h1v33h-1zM128 106h1v33h-1zM671 106h1v33h-1zM127 107h1v33h-1zM672 107h1v33h-1zM126 108h1v33h-1zM673 108h1v33h-1zM125 109h1v33h-1zM160 109h1v1h-1zM639 109h1v1h-1zM674 109h1v33h-1zM124 110h1v33h-1zM675 110h1v33h-1zM123 111h1v34h-1zM676 111h1v34h-1zM122 112h1v34h-1zM156 112h1v1h-1zM643 112h1v1h-1zM677 112h1v34h-1zM121 113h1v34h-1zM678 113h1v34h-1zM120 114h1v34h-1zM679 114h2v34h-2zM119 115h1v34h-1zM681 115h1v35h-1zM117 116h2v34h-2zM151 116h1v1h-1zM682 116h1v35h-1zM116 117h1v35h-1zM683 117h1v35h-1zM115 118h1v36h-1zM684 118h1v35h-1zM685 119h1v36h-1zM114 120h1v35h-1zM147 120h1v1h-1zM652 120h1v1h-1zM113 121h1v35h-1zM686 121h1v35h-1zM112 122h1v35h-1zM687 122h1v35h-1zM111 123h1v35h-1zM688 123h1v35h-1zM110 124h1v35h-1zM689 124h1v35h-1zM109 125h1v36h-1zM141 125h1v1h-1zM658 125h1v1h-1zM690 125h1v36h-1zM108 126h1v36h-1zM691 126h1v36h-1zM107 127h1v36h-1zM692 127h1v36h-1zM106 128h1v36h-1zM693 128h1v36h-1zM105 129h1v37h-1zM694 129h1v37h-1zM104 130h1v37h-1zM695 130h1v37h-1zM103 131h1v37h-1zM696 131h1v37h-1zM102 132h1v37h-1zM134 132h1v1h-1zM665 132h1v1h-1zM697 132h1v37h-1zM101 133h1v38h-1zM698 133h1v38h-1zM100 134h1v38h-1zM699 135h1v37h-1zM99 136h1v37h-1zM700 136h1v37h-1zM98 137h1v38h-1zM701 137h1v38h-1zM97 138h1v38h-1zM702 138h1v38h-1zM96 139h1v38h-1zM703 139h1v38h-1zM95 140h1v39h-1zM704 140h1v39h-1zM94 141h1v39h-1zM705 141h1v39h-1zM93 143h1v38h-1zM706 143h1v38h-1zM92 144h1v39h-1zM707 144h1v39h-1zM91 145h1v39h-1zM708 145h1v39h-1zM90 146h1v40h-1zM709 146h1v40h-1zM89 147h1v40h-1zM710 147h1v40h-1zM680 148h1v1h-1zM88 149h1v40h-1zM711 149h1v40h-1zM87 150h1v40h-1zM117 150h1v1h-1zM712 150h1v40h-1zM86 151h1v41h-1zM713 151h1v41h-1zM85 152h1v41h-1zM714 152h1v41h-1zM84 154h1v41h-1zM715 154h1v41h-1zM83 155h1v41h-1zM716 155h1v41h-1zM82 156h1v42h-1zM717 156h1v42h-1zM81 158h1v41h-1zM718 158h1v41h-1zM80 159h1v42h-1zM719 159h1v42h-1zM79 160h1v43h-1zM720 160h1v43h-1zM78 162h1v42h-1zM721 162h1v42h-1zM77 163h1v43h-1zM722 163h1v43h-1zM76 164h1v44h-1zM723 164h1v44h-1zM75 166h1v43h-1zM724 166h1v43h-1zM74 167h1v44h-1zM725 167h1v44h-1zM726 168h1v45h-1zM73 169h1v44h-1zM72 170h1v44h-1zM727 170h1v44h-1zM71 171h1v45h-1zM728 171h1v45h-1zM70 173h1v45h-1zM729 173h1v45h-1zM69 174h1v46h-1zM730 174h1v46h-1zM68 176h1v46h-1zM731 176h1v46h-1zM67 177h1v47h-1zM732 177h1v47h-1zM66 179h1v47h-1zM733 179h1v46h-1zM65 180h1v47h-1zM734 180h1v47h-1zM64 182h1v47h-1zM735 182h1v47h-1zM63 183h1v48h-1zM736 183h1v48h-1zM62 185h1v48h-1zM737 185h1v48h-1zM61 186h1v49h-1zM738 186h1v49h-1zM60 188h1v49h-1zM739 188h1v50h-1zM59 190h1v50h-1zM740 190h1v50h-1zM58 191h1v51h-1zM466 191h5v3h-5zM741 191h1v51h-1zM464 192h2v9h-2zM471 192h1v9h-1zM57 193h1v51h-1zM472 193h1v7h-1zM742 193h1v51h-1zM463 194h1v6h-1zM470 194h1v1h-1zM473 194h1v5h-1zM56 195h1v51h-1zM743 195h1v51h-1zM55 196h1v52h-1zM462 196h1v2h-1zM744 196h1v52h-1zM54 198h1v53h-1zM470 198h1v4h-1zM745 198h1v53h-1zM469 199h1v4h-1zM53 200h1v53h-1zM466 200h3v3h-3zM746 200h1v53h-1zM52 201h1v54h-1zM465 201h1v1h-1zM747 201h1v54h-1zM51 203h1v55h-1zM748 203h1v55h-1zM50 205h1v55h-1zM749 205h1v55h-1zM49 207h1v56h-1zM342 207h4v4h-4zM547 207h5v3h-5zM750 207h1v56h-1zM341 208h1v11h-1zM346 208h1v11h-1zM545 208h2v3h-2zM552 208h2v4h-2zM48 209h1v56h-1zM339 209h2v9h-2zM347 209h1v9h-1zM544 209h1v11h-1zM554 209h1v11h-1zM751 209h1v56h-1zM47 210h1v58h-1zM338 210h1v7h-1zM348 210h1v7h-1zM543 210h1v9h-1zM551 210h1v1h-1zM555 210h1v8h-1zM752 210h1v58h-1zM342 211h1v1h-1zM344 211h2v1h-2zM349 211h1v5h-1zM545 211h1v1h-1zM46 212h1v59h-1zM337 212h1v3h-1zM345 212h1v1h-1zM542 212h1v5h-1zM553 212h1v9h-1zM556 212h1v5h-1zM753 212h1v59h-1zM45 214h1v60h-1zM342 214h4v6h-4zM754 214h1v60h-1zM44 216h1v60h-1zM297 216h2v4h-2zM545 216h1v5h-1zM552 216h1v6h-1zM755 216h1v60h-1zM299 217h1v2h-1zM43 218h1v61h-1zM240 218h4v13h-4zM340 218h1v1h-1zM546 218h1v4h-1zM551 218h1v4h-1zM756 218h1v61h-1zM238 219h2v12h-2zM244 219h1v12h-1zM547 219h4v3h-4zM42 220h1v62h-1zM237 220h1v10h-1zM245 220h1v10h-1zM757 220h1v62h-1zM246 221h1v8h-1zM401 221h5v3h-5zM41 222h1v63h-1zM236 222h1v7h-1zM400 222h1v4h-1zM406 222h2v4h-2zM548 222h2v1h-2zM758 222h1v63h-1zM247 223h1v4h-1zM399 223h1v11h-1zM408 223h1v11h-1zM40 224h1v64h-1zM235 224h1v4h-1zM398 224h1v10h-1zM401 224h1v1h-1zM404 224h2v1h-2zM409 224h1v9h-1zM759 224h1v64h-1zM397 225h1v8h-1zM39 226h1v66h-1zM407 226h1v1h-1zM410 226h1v7h-1zM760 226h1v66h-1zM396 227h1v6h-1zM38 228h1v67h-1zM395 228h1v5h-1zM411 228h1v5h-1zM761 228h1v67h-1zM393 229h2v4h-2zM407 229h1v6h-1zM412 229h1v4h-1zM37 230h1v69h-1zM391 230h2v4h-2zM400 230h1v5h-1zM406 230h1v5h-1zM413 230h1v3h-1zM762 230h1v69h-1zM388 231h3v3h-3zM401 231h1v4h-1zM405 231h1v4h-1zM414 231h2v3h-2zM36 232h1v70h-1zM386 232h2v3h-2zM402 232h3v3h-3zM416 232h2v3h-2zM763 232h1v70h-1zM383 233h3v3h-3zM418 233h2v3h-2zM380 234h3v3h-3zM388 234h1v1h-1zM420 234h2v3h-2zM35 235h1v71h-1zM377 235h3v3h-3zM422 235h2v3h-2zM764 235h1v71h-1zM375 236h2v3h-2zM424 236h2v3h-2zM34 237h1v73h-1zM372 237h3v2h-3zM426 237h1v3h-1zM765 237h1v73h-1zM332 238h7v13h-7zM369 238h3v2h-3zM427 238h2v2h-2zM33 239h1v75h-1zM331 239h1v15h-1zM339 239h1v8h-1zM366 239h3v2h-3zM372 239h2v1h-2zM429 239h2v2h-2zM766 239h1v75h-1zM330 240h1v7h-1zM363 240h3v2h-3zM369 240h2v1h-2zM428 240h1v1h-1zM431 240h2v3h-2zM32 241h1v78h-1zM340 241h1v3h-1zM360 241h3v2h-3zM366 241h2v1h-2zM430 241h1v1h-1zM433 241h2v3h-2zM767 241h1v78h-1zM357 242h3v2h-3zM363 242h2v1h-2zM435 242h2v3h-2zM608 242h4v4h-4zM354 243h3v2h-3zM360 243h2v1h-2zM437 243h2v3h-2zM606 243h2v7h-2zM612 243h1v7h-1zM31 244h1v79h-1zM351 244h3v2h-3zM357 244h2v1h-2zM439 244h2v3h-2zM449 244h3v12h-3zM613 244h1v5h-1zM768 244h1v79h-1zM348 245h3v2h-3zM354 245h2v1h-2zM441 245h2v4h-2zM447 245h2v10h-2zM452 245h2v11h-2zM605 245h1v3h-1zM30 246h1v82h-1zM344 246h4v2h-4zM351 246h1v1h-1zM438 246h1v1h-1zM443 246h4v4h-4zM454 246h1v9h-1zM611 246h1v5h-1zM769 246h1v82h-1zM341 247h3v2h-3zM348 247h1v1h-1zM440 247h1v1h-1zM339 248h2v2h-2zM344 248h2v1h-2zM455 248h1v7h-1zM608 248h3v3h-3zM29 249h1v85h-1zM330 249h1v7h-1zM341 249h2v1h-2zM770 249h1v85h-1zM328 250h2v8h-2zM444 250h3v1h-3zM28 251h1v88h-1zM325 251h3v4h-3zM332 251h2v1h-2zM445 251h2v2h-2zM456 251h1v5h-1zM771 251h1v89h-1zM321 252h4v3h-4zM403 252h6v4h-6zM457 252h2v5h-2zM318 253h3v2h-3zM401 253h2v4h-2zM409 253h2v3h-2zM446 253h1v2h-1zM459 253h2v3h-2zM27 254h1v92h-1zM314 254h4v2h-4zM399 254h2v3h-2zM411 254h2v3h-2zM461 254h2v2h-2zM772 254h1v92h-1zM310 255h4v2h-4zM318 255h2v1h-2zM327 255h1v7h-1zM397 255h2v3h-2zM413 255h2v4h-2zM448 255h1v1h-1zM463 255h2v2h-2zM26 256h1v98h-1zM307 256h3v2h-3zM314 256h3v1h-3zM396 256h1v4h-1zM403 256h4v36h-4zM410 256h1v1h-1zM415 256h2v4h-2zM459 256h1v3h-1zM462 256h1v1h-1zM465 256h3v2h-3zM773 256h1v98h-1zM303 257h4v2h-4zM310 257h3v1h-3zM326 257h1v7h-1zM394 257h2v3h-2zM399 257h1v1h-1zM402 257h1v36h-1zM412 257h1v1h-1zM417 257h1v4h-1zM458 257h1v1h-1zM460 257h1v3h-1zM464 257h1v1h-1zM468 257h3v2h-3zM270 258h7v9h-7zM299 258h4v2h-4zM307 258h2v1h-2zM328 258h1v2h-1zM393 258h1v4h-1zM397 258h1v1h-1zM407 258h1v35h-1zM418 258h2v4h-2zM461 258h1v3h-1zM467 258h1v1h-1zM471 258h2v3h-2zM25 259h1v103h-1zM266 259h4v8h-4zM277 259h4v8h-4zM296 259h3v2h-3zM303 259h3v1h-3zM391 259h2v3h-2zM408 259h2v9h-2zM420 259h2v4h-2zM462 259h1v3h-1zM469 259h2v1h-2zM473 259h3v2h-3zM774 259h1v103h-1zM264 260h2v9h-2zM281 260h2v9h-2zM292 260h4v2h-4zM299 260h3v1h-3zM325 260h1v6h-1zM390 260h1v4h-1zM394 260h1v1h-1zM401 260h1v33h-1zM410 260h1v9h-1zM422 260h1v4h-1zM463 260h2v3h-2zM476 260h3v2h-3zM24 261h1v113h-1zM262 261h2v10h-2zM283 261h2v10h-2zM289 261h3v2h-3zM296 261h2v1h-2zM388 261h2v3h-2zM400 261h1v33h-1zM411 261h1v9h-1zM423 261h2v4h-2zM465 261h1v3h-1zM474 261h2v1h-2zM479 261h3v3h-3zM775 261h1v113h-1zM261 262h1v12h-1zM285 262h4v12h-4zM292 262h3v1h-3zM324 262h1v6h-1zM387 262h1v4h-1zM391 262h1v1h-1zM398 262h2v32h-2zM412 262h2v8h-2zM425 262h1v4h-1zM466 262h1v3h-1zM477 262h2v1h-2zM482 262h2v3h-2zM179 263h5v3h-5zM260 263h1v34h-1zM289 263h2v1h-2zM385 263h2v3h-2zM397 263h1v32h-1zM414 263h1v9h-1zM426 263h2v3h-2zM467 263h1v3h-1zM484 263h3v2h-3zM23 264h1v272h-1zM178 264h1v7h-1zM184 264h1v6h-1zM259 264h1v32h-1zM323 264h1v6h-1zM384 264h1v3h-1zM388 264h1v1h-1zM396 264h1v32h-1zM415 264h2v9h-2zM428 264h2v4h-2zM468 264h1v3h-1zM487 264h3v2h-3zM514 264h6v13h-6zM776 264h1v272h-1zM177 265h1v5h-1zM258 265h1v30h-1zM382 265h2v3h-2zM394 265h2v32h-2zM417 265h1v35h-1zM430 265h2v4h-2zM469 265h1v3h-1zM485 265h2v1h-2zM490 265h3v2h-3zM513 265h1v12h-1zM520 265h2v12h-2zM179 266h1v6h-1zM183 266h1v5h-1zM185 266h1v3h-1zM257 266h1v29h-1zM289 266h1v28h-1zM322 266h1v6h-1zM380 266h2v3h-2zM385 266h1v1h-1zM393 266h1v32h-1zM418 266h2v35h-2zM427 266h1v1h-1zM432 266h1v4h-1zM470 266h1v3h-1zM488 266h2v1h-2zM493 266h3v3h-3zM512 266h1v10h-1zM522 266h1v11h-1zM22 267h1v266h-1zM256 267h1v27h-1zM266 267h3v1h-3zM278 267h3v1h-3zM379 267h1v3h-1zM391 267h2v31h-2zM420 267h1v35h-1zM433 267h2v3h-2zM471 267h2v3h-2zM491 267h2v1h-2zM496 267h2v3h-2zM511 267h1v9h-1zM777 267h1v266h-1zM182 268h1v4h-1zM280 268h1v1h-1zM290 268h1v26h-1zM321 268h1v7h-1zM377 268h2v3h-2zM390 268h1v31h-1zM408 268h1v10h-1zM421 268h2v35h-2zM435 268h2v4h-2zM473 268h1v3h-1zM498 268h3v2h-3zM180 269h2v3h-2zM255 269h1v27h-1zM264 269h1v1h-1zM282 269h1v1h-1zM291 269h1v22h-1zM376 269h1v3h-1zM380 269h1v1h-1zM388 269h2v31h-2zM409 269h1v10h-1zM423 269h1v35h-1zM437 269h2v4h-2zM474 269h1v3h-1zM501 269h4v3h-4zM510 269h1v6h-1zM21 270h1v260h-1zM374 270h2v2h-2zM387 270h1v31h-1zM410 270h1v10h-1zM413 270h1v1h-1zM424 270h2v34h-2zM434 270h1v1h-1zM439 270h2v4h-2zM472 270h1v1h-1zM475 270h1v3h-1zM499 270h2v1h-2zM505 270h5v3h-5zM778 270h1v260h-1zM254 271h1v20h-1zM262 271h1v1h-1zM284 271h1v1h-1zM292 271h1v17h-1zM320 271h1v6h-1zM372 271h2v3h-2zM385 271h2v31h-2zM411 271h1v9h-1zM426 271h2v15h-2zM441 271h2v4h-2zM476 271h1v3h-1zM371 272h1v3h-1zM374 272h1v1h-1zM384 272h1v31h-1zM412 272h1v9h-1zM428 272h1v16h-1zM443 272h2v4h-2zM477 272h2v3h-2zM504 272h1v1h-1zM20 273h1v254h-1zM253 273h1v15h-1zM319 273h1v6h-1zM369 273h2v2h-2zM382 273h2v30h-2zM413 273h2v9h-2zM416 273h1v1h-1zM429 273h2v7h-2zM445 273h2v4h-2zM479 273h1v3h-1zM506 273h4v1h-4zM779 273h1v254h-1zM286 274h3v3h-3zM293 274h1v12h-1zM367 274h2v3h-2zM381 274h1v31h-1zM415 274h1v10h-1zM431 274h2v7h-2zM447 274h2v4h-2zM480 274h1v3h-1zM509 274h1v1h-1zM523 274h1v3h-1zM318 275h1v6h-1zM365 275h2v3h-2zM369 275h1v1h-1zM379 275h2v13h-2zM416 275h1v10h-1zM433 275h3v7h-3zM442 275h1v1h-1zM449 275h2v5h-2zM478 275h1v1h-1zM481 275h1v3h-1zM524 275h3v3h-3zM19 276h1v248h-1zM364 276h1v3h-1zM378 276h1v14h-1zM436 276h2v8h-2zM444 276h1v1h-1zM451 276h2v5h-2zM482 276h2v3h-2zM527 276h4v2h-4zM780 276h1v248h-1zM252 277h1v7h-1zM287 277h2v18h-2zM317 277h1v7h-1zM362 277h2v3h-2zM376 277h2v7h-2zM438 277h1v8h-1zM446 277h1v1h-1zM453 277h1v6h-1zM484 277h1v4h-1zM515 277h5v1h-5zM531 277h4v2h-4zM294 278h1v3h-1zM361 278h1v3h-1zM375 278h1v7h-1zM439 278h1v7h-1zM448 278h1v1h-1zM454 278h2v5h-2zM485 278h1v3h-1zM516 278h5v1h-5zM528 278h3v1h-3zM535 278h3v3h-3zM18 279h1v242h-1zM359 279h2v3h-2zM373 279h2v7h-2zM408 279h1v6h-1zM440 279h1v7h-1zM456 279h1v6h-1zM483 279h1v1h-1zM486 279h1v3h-1zM517 279h4v2h-4zM532 279h3v1h-3zM538 279h4v2h-4zM781 279h1v242h-1zM316 280h1v6h-1zM357 280h2v3h-2zM372 280h1v7h-1zM409 280h1v6h-1zM429 280h1v8h-1zM441 280h2v6h-2zM457 280h1v5h-1zM487 280h1v3h-1zM542 280h3v3h-3zM568 280h2v48h-2zM286 281h1v15h-1zM356 281h1v3h-1zM370 281h2v7h-2zM410 281h1v5h-1zM430 281h1v8h-1zM443 281h1v6h-1zM452 281h1v1h-1zM458 281h1v5h-1zM488 281h2v3h-2zM518 281h3v2h-3zM539 281h3v1h-3zM545 281h4v2h-4zM566 281h2v16h-2zM570 281h3v14h-3zM17 282h1v236h-1zM315 282h1v7h-1zM354 282h2v3h-2zM369 282h1v31h-1zM411 282h1v5h-1zM414 282h1v1h-1zM431 282h1v8h-1zM434 282h2v1h-2zM444 282h1v6h-1zM459 282h2v5h-2zM490 282h1v4h-1zM549 282h3v3h-3zM565 282h1v13h-1zM573 282h1v12h-1zM782 282h1v236h-1zM353 283h1v3h-1zM367 283h2v31h-2zM412 283h1v14h-1zM432 283h1v7h-1zM445 283h1v5h-1zM455 283h1v1h-1zM461 283h1v6h-1zM491 283h1v3h-1zM519 283h3v3h-3zM546 283h3v1h-3zM552 283h3v3h-3zM564 283h1v11h-1zM574 283h1v10h-1zM285 284h1v13h-1zM314 284h1v7h-1zM351 284h2v3h-2zM366 284h1v32h-1zM376 284h1v1h-1zM413 284h2v14h-2zM433 284h1v7h-1zM446 284h1v5h-1zM462 284h1v5h-1zM489 284h1v1h-1zM492 284h1v3h-1zM555 284h3v3h-3zM562 284h2v8h-2zM575 284h1v8h-1zM16 285h1v230h-1zM261 285h1v12h-1zM350 285h1v3h-1zM364 285h2v32h-2zM377 285h1v6h-1zM415 285h1v14h-1zM447 285h1v4h-1zM463 285h1v5h-1zM493 285h2v3h-2zM558 285h4v3h-4zM783 285h1v230h-1zM284 286h1v11h-1zM348 286h2v3h-2zM363 286h1v32h-1zM375 286h2v6h-2zM408 286h1v8h-1zM416 286h1v14h-1zM427 286h1v1h-1zM434 286h1v6h-1zM442 286h1v1h-1zM448 286h1v4h-1zM464 286h1v5h-1zM495 286h1v4h-1zM520 286h2v3h-2zM576 286h1v4h-1zM262 287h1v11h-1zM283 287h1v11h-1zM313 287h1v7h-1zM347 287h1v3h-1zM361 287h2v32h-2zM374 287h1v7h-1zM409 287h1v8h-1zM435 287h1v5h-1zM449 287h2v3h-2zM460 287h1v1h-1zM465 287h1v5h-1zM496 287h1v3h-1zM522 287h1v9h-1zM345 288h2v3h-2zM360 288h1v33h-1zM370 288h1v25h-1zM372 288h2v7h-2zM379 288h1v1h-1zM410 288h1v7h-1zM426 288h1v17h-1zM436 288h1v5h-1zM451 288h2v4h-2zM466 288h1v5h-1zM494 288h1v1h-1zM497 288h1v3h-1zM560 288h2v4h-2zM15 289h1v222h-1zM263 289h1v10h-1zM281 289h2v10h-2zM312 289h1v7h-1zM343 289h2v3h-2zM358 289h2v33h-2zM371 289h1v10h-1zM411 289h1v7h-1zM427 289h1v17h-1zM437 289h1v4h-1zM453 289h2v4h-2zM467 289h1v5h-1zM498 289h2v3h-2zM521 289h1v3h-1zM784 289h1v222h-1zM264 290h1v9h-1zM280 290h1v10h-1zM342 290h1v3h-1zM357 290h1v34h-1zM380 290h1v15h-1zM428 290h1v16h-1zM450 290h1v1h-1zM455 290h1v4h-1zM468 290h1v4h-1zM500 290h1v4h-1zM523 290h1v12h-1zM558 290h2v2h-2zM265 291h2v9h-2zM279 291h1v9h-1zM340 291h2v3h-2zM355 291h2v34h-2zM379 291h1v15h-1zM429 291h1v16h-1zM438 291h1v2h-1zM456 291h1v4h-1zM469 291h2v4h-2zM501 291h1v3h-1zM554 291h4v2h-4zM14 292h1v216h-1zM254 292h1v6h-1zM267 292h2v8h-2zM276 292h3v9h-3zM291 292h1v3h-1zM311 292h1v7h-1zM339 292h1v3h-1zM343 292h1v1h-1zM354 292h1v11h-1zM375 292h1v1h-1zM378 292h1v15h-1zM430 292h1v16h-1zM457 292h2v4h-2zM471 292h1v5h-1zM499 292h1v1h-1zM502 292h2v3h-2zM550 292h4v2h-4zM558 292h1v1h-1zM563 292h1v1h-1zM785 292h1v216h-1zM269 293h7v8h-7zM292 293h1v3h-1zM337 293h2v3h-2zM352 293h2v8h-2zM376 293h2v2h-2zM431 293h1v15h-1zM454 293h1v1h-1zM459 293h1v4h-1zM472 293h1v5h-1zM504 293h1v4h-1zM524 293h1v10h-1zM546 293h4v2h-4zM554 293h2v1h-2zM253 294h1v5h-1zM293 294h1v3h-1zM310 294h1v8h-1zM336 294h1v3h-1zM340 294h1v1h-1zM350 294h2v8h-2zM375 294h1v2h-1zM398 294h1v1h-1zM432 294h1v15h-1zM460 294h1v4h-1zM473 294h1v5h-1zM505 294h1v4h-1zM543 294h3v3h-3zM550 294h3v1h-3zM287 295h1v1h-1zM294 295h1v3h-1zM335 295h1v3h-1zM349 295h1v9h-1zM372 295h1v3h-1zM374 295h1v1h-1zM377 295h1v12h-1zM433 295h1v15h-1zM461 295h2v4h-2zM470 295h1v1h-1zM474 295h1v4h-1zM503 295h1v1h-1zM506 295h2v4h-2zM539 295h4v2h-4zM546 295h3v1h-3zM570 295h2v1h-2zM13 296h1v208h-1zM252 296h1v5h-1zM295 296h1v3h-1zM309 296h1v9h-1zM333 296h2v3h-2zM337 296h1v1h-1zM348 296h1v9h-1zM376 296h1v12h-1zM463 296h1v4h-1zM475 296h1v4h-1zM508 296h1v4h-1zM536 296h3v3h-3zM570 296h1v5h-1zM786 296h1v208h-1zM296 297h1v3h-1zM332 297h1v3h-1zM346 297h2v9h-2zM375 297h1v12h-1zM434 297h1v4h-1zM464 297h2v4h-2zM476 297h2v4h-2zM509 297h1v4h-1zM525 297h1v8h-1zM532 297h4v2h-4zM539 297h3v1h-3zM567 297h1v6h-1zM251 298h1v5h-1zM297 298h1v3h-1zM330 298h2v3h-2zM345 298h1v11h-1zM374 298h1v12h-1zM391 298h1v1h-1zM435 298h1v4h-1zM466 298h1v4h-1zM478 298h1v5h-1zM510 298h2v4h-2zM529 298h3v3h-3zM250 299h1v6h-1zM298 299h1v4h-1zM308 299h1v16h-1zM329 299h1v3h-1zM333 299h1v1h-1zM343 299h2v16h-2zM373 299h1v11h-1zM436 299h1v4h-1zM467 299h2v4h-2zM479 299h1v5h-1zM512 299h2v5h-2zM526 299h3v3h-3zM532 299h3v1h-3zM12 300h1v200h-1zM268 300h1v1h-1zM299 300h1v4h-1zM328 300h1v3h-1zM342 300h1v17h-1zM372 300h1v11h-1zM437 300h1v3h-1zM469 300h1v4h-1zM480 300h1v5h-1zM514 300h9v3h-9zM787 300h1v200h-1zM220 301h4v7h-4zM249 301h1v6h-1zM272 301h5v2h-5zM300 301h1v4h-1zM307 301h1v15h-1zM326 301h2v3h-2zM330 301h1v1h-1zM341 301h1v17h-1zM353 301h1v1h-1zM371 301h1v11h-1zM438 301h1v3h-1zM470 301h2v4h-2zM477 301h1v1h-1zM481 301h1v5h-1zM529 301h1v1h-1zM219 302h1v6h-1zM301 302h2v4h-2zM325 302h1v3h-1zM339 302h2v12h-2zM350 302h1v1h-1zM434 302h1v9h-1zM439 302h1v2h-1zM472 302h1v5h-1zM482 302h1v4h-1zM511 302h1v1h-1zM526 302h2v6h-2zM218 303h1v4h-1zM224 303h1v4h-1zM248 303h1v6h-1zM273 303h3v6h-3zM303 303h1v12h-1zM324 303h1v3h-1zM338 303h1v11h-1zM353 303h1v7h-1zM382 303h1v1h-1zM435 303h1v8h-1zM468 303h1v1h-1zM473 303h2v5h-2zM483 303h2v4h-2zM514 303h7v1h-7zM570 303h1v19h-1zM11 304h1v192h-1zM304 304h1v11h-1zM306 304h1v12h-1zM322 304h2v3h-2zM326 304h1v1h-1zM337 304h1v11h-1zM351 304h2v2h-2zM354 304h1v23h-1zM425 304h1v1h-1zM436 304h1v8h-1zM475 304h1v5h-1zM485 304h1v5h-1zM513 304h7v1h-7zM528 304h1v9h-1zM788 304h1v192h-1zM247 305h1v5h-1zM305 305h1v11h-1zM321 305h1v4h-1zM335 305h2v4h-2zM350 305h1v2h-1zM437 305h1v8h-1zM471 305h1v1h-1zM476 305h1v5h-1zM486 305h1v5h-1zM514 305h4v1h-4zM302 306h1v1h-1zM320 306h1v5h-1zM334 306h1v5h-1zM346 306h1v1h-1zM349 306h1v2h-1zM352 306h1v13h-1zM477 306h2v5h-2zM487 306h1v5h-1zM516 306h1v1h-1zM246 307h1v5h-1zM319 307h1v5h-1zM322 307h1v1h-1zM333 307h1v5h-1zM348 307h1v1h-1zM351 307h1v4h-1zM479 307h1v6h-1zM484 307h1v1h-1zM488 307h1v5h-1zM529 307h1v8h-1zM10 308h1v184h-1zM220 308h3v1h-3zM309 308h1v7h-1zM318 308h1v5h-1zM332 308h1v5h-1zM350 308h1v4h-1zM438 308h1v6h-1zM474 308h1v1h-1zM480 308h2v6h-2zM489 308h1v5h-1zM527 308h1v2h-1zM789 308h1v184h-1zM245 309h1v5h-1zM273 309h2v9h-2zM310 309h2v4h-2zM331 309h1v5h-1zM335 309h1v1h-1zM348 309h2v3h-2zM439 309h1v6h-1zM473 309h1v3h-1zM482 309h1v7h-1zM490 309h1v5h-1zM244 310h1v6h-1zM272 310h1v23h-1zM317 310h1v5h-1zM330 310h1v5h-1zM336 310h1v6h-1zM345 310h3v3h-3zM440 310h1v6h-1zM474 310h1v3h-1zM483 310h1v7h-1zM491 310h1v5h-1zM530 310h1v7h-1zM302 311h1v2h-1zM316 311h1v5h-1zM329 311h1v5h-1zM335 311h1v6h-1zM353 311h1v17h-1zM441 311h1v6h-1zM475 311h1v4h-1zM478 311h1v1h-1zM484 311h1v7h-1zM492 311h1v5h-1zM9 312h1v176h-1zM243 312h1v6h-1zM315 312h1v5h-1zM328 312h1v5h-1zM351 312h1v7h-1zM442 312h1v5h-1zM476 312h1v4h-1zM485 312h2v7h-2zM493 312h1v5h-1zM790 312h1v176h-1zM310 313h1v1h-1zM314 313h1v6h-1zM327 313h1v6h-1zM334 313h1v4h-1zM345 313h2v1h-2zM350 313h1v7h-1zM443 313h1v5h-1zM477 313h1v4h-1zM487 313h1v8h-1zM494 313h1v5h-1zM531 313h1v7h-1zM242 314h1v6h-1zM326 314h1v6h-1zM333 314h1v4h-1zM340 314h1v5h-1zM349 314h1v7h-1zM367 314h1v1h-1zM444 314h2v5h-2zM478 314h1v4h-1zM481 314h1v1h-1zM488 314h1v8h-1zM495 314h1v5h-1zM313 315h1v5h-1zM325 315h1v6h-1zM339 315h1v4h-1zM343 315h1v1h-1zM348 315h1v7h-1zM446 315h1v6h-1zM479 315h1v4h-1zM489 315h1v8h-1zM496 315h1v5h-1zM532 315h1v8h-1zM241 316h1v6h-1zM312 316h1v5h-1zM324 316h1v6h-1zM332 316h1v3h-1zM338 316h1v4h-1zM347 316h1v7h-1zM447 316h1v6h-1zM480 316h1v4h-1zM490 316h1v8h-1zM497 316h1v5h-1zM515 316h1v10h-1zM8 317h1v166h-1zM323 317h1v6h-1zM331 317h1v2h-1zM346 317h1v7h-1zM364 317h1v1h-1zM448 317h1v6h-1zM481 317h1v4h-1zM491 317h1v8h-1zM498 317h1v5h-1zM513 317h2v9h-2zM516 317h2v10h-2zM791 317h1v166h-1zM240 318h1v6h-1zM273 318h1v8h-1zM311 318h1v5h-1zM322 318h1v6h-1zM330 318h1v2h-1zM345 318h1v7h-1zM449 318h1v6h-1zM482 318h1v4h-1zM492 318h1v8h-1zM499 318h1v6h-1zM512 318h1v8h-1zM533 318h1v8h-1zM310 319h1v5h-1zM321 319h1v7h-1zM344 319h1v4h-1zM361 319h1v1h-1zM445 319h1v1h-1zM450 319h1v6h-1zM483 319h1v4h-1zM486 319h1v1h-1zM493 319h1v9h-1zM500 319h1v6h-1zM511 319h1v6h-1zM518 319h1v8h-1zM239 320h1v6h-1zM271 320h1v19h-1zM309 320h1v6h-1zM343 320h1v3h-1zM352 320h1v9h-1zM451 320h2v6h-2zM494 320h1v9h-1zM501 320h1v6h-1zM510 320h1v5h-1zM7 321h1v158h-1zM320 321h1v6h-1zM342 321h1v3h-1zM351 321h1v9h-1zM453 321h1v7h-1zM484 321h1v3h-1zM495 321h1v10h-1zM502 321h1v6h-1zM519 321h1v7h-1zM534 321h1v8h-1zM792 321h1v158h-1zM238 322h1v7h-1zM308 322h1v5h-1zM319 322h1v6h-1zM341 322h1v2h-1zM350 322h1v9h-1zM358 322h1v1h-1zM454 322h1v7h-1zM485 322h1v3h-1zM496 322h1v12h-1zM503 322h1v7h-1zM237 323h1v10h-1zM307 323h1v6h-1zM318 323h1v6h-1zM349 323h1v9h-1zM455 323h1v7h-1zM486 323h1v3h-1zM497 323h1v262h-1zM520 323h1v5h-1zM317 324h1v7h-1zM344 324h1v1h-1zM348 324h1v9h-1zM456 324h1v7h-1zM473 324h2v1h-2zM487 324h1v3h-1zM498 324h1v261h-1zM504 324h1v6h-1zM521 324h1v5h-1zM535 324h1v12h-1zM567 324h1v10h-1zM624 324h3v7h-3zM236 325h1v28h-1zM306 325h1v5h-1zM347 325h1v9h-1zM355 325h1v1h-1zM457 325h1v7h-1zM474 325h3v2h-3zM499 325h1v114h-1zM505 325h1v6h-1zM522 325h1v4h-1zM627 325h8v4h-8zM305 326h1v6h-1zM316 326h1v6h-1zM346 326h1v9h-1zM452 326h1v1h-1zM458 326h1v7h-1zM477 326h1v5h-1zM488 326h1v2h-1zM500 326h1v91h-1zM506 326h1v7h-1zM523 326h1v3h-1zM635 326h1v9h-1zM6 327h1v146h-1zM235 327h1v23h-1zM315 327h1v6h-1zM345 327h1v9h-1zM459 327h1v7h-1zM475 327h2v1h-2zM478 327h1v5h-1zM489 327h1v3h-1zM507 327h1v7h-1zM524 327h2v3h-2zM536 327h1v10h-1zM793 327h1v146h-1zM234 328h1v10h-1zM270 328h1v19h-1zM304 328h1v5h-1zM314 328h1v7h-1zM344 328h1v10h-1zM460 328h2v7h-2zM476 328h1v2h-1zM479 328h1v5h-1zM482 328h1v8h-1zM490 328h1v3h-1zM501 328h1v74h-1zM508 328h1v8h-1zM526 328h1v3h-1zM568 328h1v3h-1zM233 329h1v7h-1zM303 329h1v6h-1zM343 329h1v10h-1zM462 329h1v8h-1zM480 329h1v5h-1zM483 329h1v8h-1zM491 329h1v3h-1zM502 329h1v68h-1zM509 329h1v8h-1zM527 329h2v3h-2zM537 329h1v10h-1zM566 329h1v8h-1zM627 329h2v7h-2zM631 329h4v1h-4zM232 330h1v5h-1zM313 330h1v6h-1zM342 330h1v10h-1zM463 330h1v7h-1zM468 330h3v12h-3zM481 330h1v5h-1zM484 330h1v8h-1zM503 330h1v65h-1zM510 330h1v16h-1zM529 330h2v3h-2zM632 330h3v6h-3zM229 331h3v3h-3zM302 331h1v5h-1zM312 331h1v6h-1zM341 331h1v10h-1zM464 331h1v7h-1zM471 331h2v14h-2zM485 331h1v8h-1zM492 331h1v2h-1zM531 331h2v3h-2zM625 331h2v5h-2zM631 331h1v5h-1zM5 332h1v136h-1zM227 332h2v3h-2zM301 332h1v6h-1zM311 332h1v7h-1zM340 332h1v10h-1zM465 332h2v7h-2zM473 332h2v3h-2zM486 332h1v28h-1zM493 332h1v2h-1zM504 332h1v63h-1zM511 332h1v8h-1zM533 332h2v3h-2zM538 332h1v10h-1zM629 332h2v4h-2zM794 332h1v136h-1zM226 333h1v10h-1zM278 333h2v1h-2zM339 333h1v10h-1zM467 333h1v8h-1zM475 333h2v3h-2zM487 333h1v28h-1zM494 333h1v2h-1zM505 333h1v62h-1zM512 333h1v8h-1zM565 333h1v16h-1zM225 334h1v8h-1zM229 334h1v1h-1zM269 334h1v15h-1zM277 334h2v2h-2zM300 334h1v5h-1zM310 334h1v6h-1zM318 334h2v2h-2zM477 334h1v4h-1zM488 334h1v28h-1zM506 334h1v56h-1zM513 334h1v23h-1zM227 335h1v9h-1zM276 335h1v4h-1zM299 335h1v6h-1zM309 335h1v17h-1zM317 335h1v4h-1zM338 335h1v10h-1zM461 335h1v1h-1zM473 335h1v12h-1zM478 335h2v4h-2zM489 335h1v28h-1zM514 335h1v265h-1zM534 335h1v1h-1zM539 335h1v10h-1zM275 336h1v4h-1zM277 336h1v1h-1zM308 336h1v18h-1zM316 336h1v4h-1zM318 336h1v1h-1zM324 336h2v2h-2zM337 336h1v10h-1zM474 336h1v12h-1zM476 336h1v1h-1zM480 336h1v4h-1zM490 336h2v15h-2zM507 336h1v47h-1zM515 336h1v210h-1zM540 336h3v3h-3zM274 337h1v4h-1zM298 337h1v5h-1zM315 337h1v37h-1zM322 337h2v5h-2zM336 337h1v10h-1zM475 337h1v12h-1zM481 337h1v4h-1zM492 337h1v45h-1zM508 337h1v7h-1zM516 337h1v59h-1zM543 337h3v3h-3zM564 337h1v11h-1zM4 338h1v124h-1zM273 338h1v4h-1zM307 338h1v17h-1zM314 338h1v37h-1zM321 338h1v7h-1zM324 338h1v2h-1zM335 338h1v10h-1zM476 338h1v12h-1zM482 338h1v4h-1zM493 338h1v7h-1zM509 338h1v7h-1zM546 338h3v3h-3zM268 339h1v13h-1zM272 339h1v4h-1zM297 339h1v5h-1zM306 339h1v17h-1zM313 339h1v38h-1zM320 339h1v8h-1zM334 339h1v10h-1zM466 339h1v1h-1zM477 339h1v12h-1zM483 339h2v18h-2zM494 339h1v7h-1zM517 339h1v37h-1zM540 339h1v8h-1zM542 339h1v1h-1zM549 339h3v3h-3zM566 339h8v10h-8zM795 339h1v122h-1zM228 340h1v4h-1zM234 340h1v8h-1zM271 340h1v5h-1zM296 340h1v6h-1zM311 340h2v96h-2zM318 340h2v9h-2zM478 340h1v12h-1zM485 340h1v19h-1zM495 340h2v7h-2zM518 340h1v22h-1zM545 340h1v1h-1zM552 340h3v3h-3zM563 340h1v8h-1zM574 340h1v9h-1zM229 341h5v4h-5zM305 341h1v17h-1zM310 341h1v124h-1zM316 341h2v12h-2zM333 341h1v10h-1zM479 341h1v12h-1zM511 341h1v34h-1zM519 341h1v14h-1zM555 341h3v3h-3zM575 341h1v6h-1zM295 342h1v5h-1zM304 342h1v17h-1zM322 342h1v1h-1zM332 342h1v10h-1zM469 342h2v1h-2zM480 342h2v12h-2zM512 342h1v17h-1zM520 342h1v13h-1zM541 342h1v8h-1zM558 342h3v3h-3zM267 343h1v13h-1zM303 343h1v59h-1zM331 343h1v10h-1zM470 343h1v1h-1zM482 343h1v13h-1zM561 343h2v3h-2zM237 344h1v12h-1zM294 344h1v5h-1zM330 344h1v10h-1zM521 344h1v24h-1zM3 345h1v110h-1zM232 345h2v1h-2zM266 345h1v15h-1zM293 345h1v6h-1zM302 345h1v62h-1zM472 345h1v1h-1zM508 345h1v30h-1zM522 345h1v178h-1zM542 345h1v8h-1zM796 345h1v110h-1zM265 346h1v5h-1zM301 346h1v70h-1zM329 346h1v10h-1zM493 346h1v3h-1zM509 346h1v22h-1zM523 346h1v186h-1zM562 346h1v5h-1zM264 347h1v5h-1zM292 347h1v6h-1zM300 347h1v82h-1zM322 347h1v3h-1zM328 347h1v10h-1zM494 347h1v189h-1zM496 347h1v238h-1zM510 347h1v20h-1zM561 347h1v7h-1zM291 348h1v6h-1zM321 348h1v18h-1zM327 348h1v10h-1zM495 348h1v4h-1zM524 348h1v103h-1zM543 348h1v8h-1zM263 349h1v4h-1zM299 349h1v94h-1zM318 349h1v2h-1zM320 349h1v18h-1zM560 349h1v7h-1zM566 349h7v1h-7zM238 350h1v10h-1zM262 350h1v4h-1zM290 350h1v6h-1zM298 350h1v108h-1zM326 350h1v10h-1zM493 350h1v94h-1zM525 350h1v31h-1zM183 351h6v3h-6zM261 351h1v4h-1zM319 351h1v18h-1zM325 351h1v10h-1zM491 351h1v14h-1zM544 351h1v7h-1zM181 352h2v3h-2zM189 352h1v12h-1zM260 352h1v4h-1zM265 352h1v13h-1zM289 352h1v7h-1zM297 352h1v120h-1zM324 352h1v10h-1zM490 352h1v12h-1zM559 352h1v7h-1zM581 352h7v7h-7zM2 353h1v94h-1zM180 353h1v10h-1zM190 353h1v10h-1zM259 353h1v4h-1zM288 353h1v135h-1zM296 353h1v130h-1zM309 353h1v215h-1zM316 353h1v20h-1zM318 353h1v17h-1zM323 353h1v10h-1zM495 353h1v231h-1zM545 353h1v8h-1zM580 353h1v6h-1zM588 353h1v5h-1zM797 353h1v94h-1zM179 354h1v8h-1zM187 354h2v1h-2zM191 354h1v7h-1zM239 354h1v9h-1zM258 354h1v4h-1zM295 354h1v132h-1zM317 354h1v17h-1zM322 354h1v11h-1zM481 354h1v1h-1zM526 354h1v10h-1zM558 354h1v7h-1zM579 354h1v3h-1zM181 355h1v1h-1zM188 355h1v1h-1zM257 355h1v4h-1zM287 355h1v41h-1zM294 355h1v86h-1zM308 355h1v223h-1zM178 356h1v4h-1zM256 356h1v4h-1zM546 356h1v8h-1zM240 357h1v9h-1zM255 357h1v4h-1zM264 357h1v12h-1zM286 357h1v35h-1zM293 357h1v109h-1zM307 357h1v187h-1zM484 357h1v1h-1zM557 357h1v6h-1zM254 358h1v4h-1zM285 358h1v53h-1zM292 358h1v118h-1zM306 358h1v165h-1zM253 359h1v4h-1zM291 359h1v118h-1zM305 359h1v43h-1zM547 359h1v8h-1zM556 359h1v7h-1zM581 359h6v1h-6zM181 360h1v4h-1zM188 360h1v4h-1zM241 360h1v9h-1zM252 360h1v4h-1zM284 360h1v86h-1zM290 360h1v119h-1zM304 360h1v36h-1zM582 360h5v1h-5zM182 361h1v4h-1zM187 361h1v4h-1zM283 361h1v117h-1zM289 361h1v120h-1zM512 361h2v239h-2zM548 361h1v8h-1zM555 361h1v7h-1zM582 361h4v4h-4zM1 362h1v76h-1zM183 362h4v3h-4zM251 362h1v3h-1zM263 362h1v12h-1zM282 362h1v153h-1zM242 363h1v12h-1zM250 363h1v3h-1zM798 363h1v74h-1zM249 364h1v3h-1zM281 364h1v34h-1zM549 364h1v8h-1zM554 364h1v6h-1zM248 365h1v3h-1zM582 365h3v6h-3zM243 366h1v10h-1zM247 366h1v3h-1zM553 366h1v7h-1zM246 367h1v3h-1zM262 367h1v12h-1zM550 367h1v12h-1zM245 368h1v3h-1zM280 368h1v4h-1zM244 369h1v10h-1zM551 369h2v10h-2zM241 371h1v5h-1zM261 371h1v13h-1zM582 371h2v8h-2zM581 372h1v36h-1zM240 373h1v4h-1zM245 373h1v10h-1zM239 374h1v4h-1zM549 374h1v7h-1zM0 375h1v50h-1zM238 375h1v4h-1zM553 375h1v9h-1zM799 375h1v50h-1zM237 376h1v4h-1zM260 376h1v15h-1zM548 376h1v7h-1zM236 377h1v4h-1zM246 377h1v9h-1zM235 378h1v4h-1zM547 378h1v7h-1zM554 378h1v9h-1zM234 379h1v4h-1zM552 379h1v2h-1zM582 379h1v10h-1zM233 380h1v4h-1zM259 380h1v11h-1zM232 381h1v4h-1zM247 381h1v9h-1zM546 381h1v6h-1zM555 381h1v9h-1zM231 382h1v4h-1zM580 382h1v26h-1zM230 383h1v4h-1zM545 383h1v6h-1zM229 384h1v5h-1zM248 384h1v10h-1zM556 384h1v9h-1zM258 385h1v5h-1zM544 385h1v6h-1zM228 386h1v4h-1zM261 386h1v6h-1zM227 387h1v4h-1zM262 387h1v5h-1zM543 387h1v6h-1zM557 387h1v9h-1zM226 388h1v4h-1zM249 388h1v9h-1zM263 388h1v5h-1zM225 389h1v4h-1zM264 389h2v4h-2zM542 389h1v6h-1zM156 390h2v6h-2zM224 390h1v4h-1zM266 390h1v5h-1zM558 390h1v9h-1zM155 391h1v4h-1zM158 391h2v4h-2zM223 391h1v4h-1zM267 391h2v4h-2zM541 391h1v6h-1zM154 392h1v2h-1zM222 392h1v4h-1zM250 392h1v10h-1zM269 392h1v4h-1zM579 392h1v17h-1zM221 393h1v4h-1zM265 393h1v1h-1zM270 393h1v3h-1zM540 393h1v7h-1zM559 393h1v9h-1zM220 394h1v4h-1zM271 394h1v3h-1zM582 394h1v13h-1zM158 395h1v1h-1zM219 395h1v4h-1zM251 395h1v11h-1zM268 395h1v1h-1zM272 395h1v2h-1zM539 395h1v7h-1zM578 395h1v14h-1zM157 396h1v1h-1zM218 396h1v4h-1zM560 396h1v9h-1zM577 396h1v14h-1zM217 397h1v4h-1zM538 397h1v7h-1zM576 397h1v13h-1zM583 397h1v10h-1zM216 398h1v4h-1zM584 398h1v8h-1zM252 399h1v11h-1zM537 399h1v7h-1zM561 399h1v9h-1zM575 399h1v12h-1zM215 400h1v3h-1zM585 400h1v5h-1zM639 400h1v8h-1zM214 401h1v3h-1zM536 401h1v7h-1zM638 401h1v7h-1zM640 401h1v7h-1zM213 402h1v4h-1zM562 402h1v9h-1zM637 402h1v5h-1zM641 402h1v5h-1zM212 403h1v4h-1zM253 403h1v11h-1zM535 403h1v8h-1zM636 403h1v3h-1zM642 403h1v3h-1zM211 404h1v4h-1zM210 405h1v4h-1zM534 405h1v8h-1zM563 405h1v9h-1zM209 406h1v4h-1zM208 407h1v4h-1zM254 407h1v12h-1zM533 407h1v8h-1zM574 407h1v5h-1zM207 408h1v4h-1zM564 408h1v9h-1zM573 408h1v5h-1zM206 409h1v4h-1zM532 409h1v9h-1zM205 410h1v5h-1zM572 410h1v4h-1zM204 411h1v5h-1zM255 411h1v12h-1zM531 411h1v14h-1zM565 411h1v11h-1zM571 411h1v5h-1zM203 412h1v5h-1zM530 412h1v11h-1zM570 412h1v5h-1zM202 413h1v6h-1zM569 413h1v5h-1zM201 414h1v6h-1zM521 414h1v99h-1zM529 414h1v6h-1zM566 414h1v9h-1zM568 414h1v5h-1zM200 415h1v7h-1zM256 415h1v23h-1zM528 415h1v2h-1zM567 415h1v11h-1zM199 416h1v17h-1zM198 417h1v15h-1zM191 418h7v3h-7zM305 418h1v178h-1zM189 419h2v3h-2zM257 419h1v16h-1zM532 419h1v8h-1zM564 419h1v4h-1zM188 420h1v11h-1zM563 420h1v4h-1zM187 421h1v9h-1zM191 421h1v1h-1zM194 421h4v1h-4zM562 421h1v4h-1zM568 421h1v8h-1zM186 422h1v6h-1zM189 422h1v2h-1zM196 422h2v9h-2zM533 422h1v8h-1zM561 422h1v4h-1zM258 423h1v8h-1zM560 423h1v4h-1zM559 424h1v4h-1zM569 424h1v8h-1zM534 425h1v7h-1zM558 425h1v4h-1zM24 426h1v113h-1zM189 426h1v5h-1zM557 426h1v4h-1zM598 426h6v11h-6zM775 426h1v113h-1zM195 427h1v4h-1zM259 427h1v1h-1zM535 427h1v8h-1zM556 427h1v4h-1zM570 427h1v8h-1zM597 427h1v11h-1zM604 427h1v10h-1zM190 428h5v4h-5zM555 428h1v3h-1zM596 428h1v11h-1zM605 428h1v8h-1zM554 429h1v3h-1zM606 429h1v5h-1zM200 430h1v5h-1zM536 430h1v7h-1zM553 430h1v3h-1zM571 430h1v8h-1zM595 430h1v10h-1zM197 431h1v1h-1zM255 431h1v10h-1zM552 431h1v3h-1zM201 432h1v4h-1zM537 432h1v7h-1zM551 432h1v3h-1zM202 433h1v4h-1zM550 433h1v3h-1zM572 433h1v8h-1zM203 434h1v4h-1zM549 434h1v3h-1zM594 434h1v7h-1zM254 435h1v10h-1zM538 435h1v7h-1zM548 435h1v3h-1zM204 436h1v4h-1zM311 436h1v13h-1zM547 436h1v3h-1zM573 436h1v8h-1zM593 436h1v6h-1zM205 437h1v4h-1zM539 437h1v11h-1zM546 437h1v3h-1zM598 437h4v1h-4zM25 438h1v103h-1zM206 438h1v4h-1zM253 438h1v10h-1zM545 438h1v3h-1zM592 438h1v5h-1zM774 438h1v103h-1zM544 439h1v3h-1zM574 439h1v8h-1zM591 439h1v5h-1zM207 440h1v4h-1zM540 440h1v9h-1zM543 440h1v3h-1zM208 441h1v4h-1zM542 441h1v3h-1zM590 441h1v5h-1zM146 442h2v3h-2zM209 442h1v5h-1zM252 442h1v9h-1zM541 442h1v9h-1zM575 442h1v8h-1zM589 442h1v5h-1zM145 443h1v7h-1zM148 443h3v3h-3zM588 443h1v5h-1zM144 444h1v5h-1zM210 444h1v4h-1zM281 444h1v163h-1zM143 445h1v3h-1zM146 445h1v1h-1zM151 445h1v3h-1zM211 445h1v5h-1zM251 445h1v9h-1zM537 445h2v3h-2zM542 445h1v9h-1zM576 445h1v8h-1zM587 445h1v4h-1zM26 446h1v98h-1zM149 446h2v4h-2zM536 446h1v4h-1zM586 446h1v5h-1zM773 446h1v98h-1zM212 447h1v4h-1zM510 447h1v65h-1zM535 447h1v4h-1zM585 447h1v5h-1zM146 448h3v3h-3zM213 448h1v5h-1zM250 448h1v10h-1zM534 448h1v4h-1zM537 448h1v1h-1zM543 448h1v9h-1zM577 448h1v16h-1zM584 448h1v5h-1zM304 449h1v147h-1zM511 449h1v150h-1zM533 449h1v3h-1zM583 449h1v5h-1zM214 450h1v4h-1zM509 450h1v19h-1zM520 450h1v54h-1zM531 450h2v3h-2zM215 451h1v5h-1zM501 451h2v33h-2zM530 451h1v4h-1zM544 451h1v8h-1zM578 451h1v13h-1zM582 451h1v5h-1zM249 452h1v9h-1zM529 452h1v4h-1zM581 452h1v5h-1zM216 453h1v4h-1zM528 453h1v3h-1zM531 453h1v1h-1zM580 453h1v22h-1zM27 454h1v92h-1zM217 454h1v5h-1zM500 454h1v21h-1zM527 454h1v3h-1zM545 454h1v8h-1zM579 454h1v12h-1zM772 454h1v92h-1zM248 455h1v9h-1zM526 455h1v3h-1zM218 456h1v5h-1zM503 456h1v56h-1zM525 456h1v2h-1zM219 457h1v5h-1zM546 457h1v9h-1zM247 458h1v10h-1zM499 458h1v128h-1zM576 458h1v7h-1zM220 459h1v5h-1zM28 460h1v89h-1zM575 460h1v6h-1zM771 460h1v89h-1zM221 461h1v5h-1zM246 461h1v10h-1zM287 461h1v146h-1zM547 461h1v8h-1zM574 462h1v6h-1zM581 462h1v13h-1zM222 463h1v5h-1zM213 464h4v5h-4zM223 464h1v6h-1zM548 464h1v9h-1zM573 464h1v5h-1zM212 465h1v8h-1zM245 465h1v9h-1zM29 466h1v85h-1zM211 466h1v5h-1zM217 466h1v1h-1zM224 466h1v6h-1zM572 466h1v4h-1zM582 466h1v9h-1zM770 466h1v85h-1zM571 467h1v5h-1zM585 467h4v8h-4zM225 468h1v6h-1zM244 468h1v9h-1zM286 468h1v139h-1zM294 468h1v18h-1zM549 468h1v10h-1zM583 468h2v7h-2zM589 468h1v10h-1zM213 469h3v5h-3zM570 469h1v4h-1zM226 470h1v6h-1zM504 470h1v45h-1zM516 470h1v76h-1zM569 470h1v5h-1zM243 471h1v10h-1zM550 471h1v41h-1zM30 472h1v82h-1zM216 472h1v6h-1zM227 472h1v6h-1zM568 472h1v5h-1zM769 472h1v82h-1zM214 474h2v1h-2zM217 474h1v5h-1zM228 474h1v7h-1zM242 474h1v10h-1zM303 474h1v118h-1zM567 474h1v4h-1zM215 475h1v1h-1zM566 475h1v5h-1zM586 475h3v13h-3zM218 476h1v4h-1zM229 476h1v7h-1zM551 476h1v34h-1zM31 477h1v79h-1zM219 477h1v4h-1zM241 477h1v10h-1zM285 477h1v130h-1zM565 477h1v5h-1zM768 477h1v79h-1zM220 478h1v5h-1zM230 478h1v8h-1zM280 478h1v129h-1zM564 478h1v6h-1zM221 480h1v4h-1zM231 480h1v9h-1zM240 480h1v11h-1zM563 480h1v5h-1zM585 480h1v72h-1zM32 481h1v77h-1zM222 481h1v5h-1zM552 481h1v27h-1zM767 481h1v78h-1zM232 482h1v10h-1zM562 482h1v5h-1zM223 483h1v4h-1zM293 483h1v2h-1zM561 483h1v6h-1zM224 484h1v4h-1zM239 484h1v10h-1zM502 484h1v17h-1zM225 485h1v5h-1zM233 485h1v20h-1zM560 485h1v6h-1zM33 486h1v75h-1zM238 486h1v12h-1zM766 486h1v75h-1zM226 487h1v4h-1zM559 487h1v6h-1zM227 488h1v4h-1zM234 488h1v26h-1zM553 488h1v17h-1zM584 488h1v73h-1zM586 488h2v18h-2zM228 489h1v5h-1zM237 489h1v18h-1zM517 489h1v113h-1zM558 489h1v6h-1zM34 490h1v73h-1zM505 490h1v25h-1zM557 490h1v7h-1zM765 490h1v73h-1zM229 491h1v4h-1zM230 492h1v5h-1zM236 492h1v14h-1zM284 492h1v115h-1zM556 492h1v7h-1zM231 493h1v5h-1zM235 493h1v17h-1zM35 494h1v71h-1zM232 494h1v14h-1zM555 494h1v7h-1zM764 494h1v71h-1zM554 495h1v8h-1zM171 497h5v5h-5zM583 497h1v69h-1zM36 498h1v70h-1zM170 498h1v12h-1zM176 498h2v12h-2zM763 498h1v70h-1zM169 499h1v10h-1zM178 499h1v10h-1zM302 499h1v94h-1zM524 499h1v46h-1zM168 500h1v8h-1zM179 500h1v7h-1zM37 501h1v69h-1zM167 501h1v6h-1zM238 501h1v7h-1zM518 501h1v101h-1zM762 501h1v69h-1zM171 502h2v2h-2zM175 502h1v9h-1zM180 502h1v3h-1zM231 503h1v8h-1zM239 503h1v6h-1zM171 504h1v6h-1zM174 504h1v7h-1zM279 504h1v102h-1zM506 504h1v7h-1zM549 504h1v11h-1zM38 505h1v67h-1zM172 505h2v6h-2zM240 505h1v6h-1zM500 505h1v82h-1zM761 505h1v67h-1zM230 506h1v8h-1zM582 506h1v26h-1zM586 506h1v26h-1zM233 507h1v11h-1zM241 507h1v5h-1zM39 508h1v66h-1zM760 508h1v66h-1zM229 509h1v10h-1zM242 509h1v4h-1zM548 509h1v8h-1zM243 510h1v5h-1zM232 511h1v11h-1zM759 511h1v65h-1zM40 512h1v64h-1zM228 512h1v26h-1zM244 512h1v4h-1zM547 512h1v8h-1zM245 513h1v5h-1zM41 515h1v63h-1zM227 515h1v28h-1zM231 515h1v11h-1zM246 515h1v4h-1zM283 515h1v92h-1zM546 515h1v8h-1zM581 515h1v26h-1zM758 515h1v63h-1zM288 516h1v91h-1zM247 517h1v4h-1zM648 517h5v3h-5zM42 518h1v62h-1zM226 518h1v31h-1zM230 518h1v12h-1zM248 518h1v5h-1zM545 518h1v8h-1zM647 518h1v10h-1zM653 518h2v4h-2zM757 518h1v62h-1zM646 519h1v7h-1zM229 520h1v14h-1zM249 520h1v4h-1zM519 520h1v83h-1zM648 520h2v1h-2zM652 520h1v1h-1zM655 520h1v7h-1zM43 521h1v61h-1zM250 521h1v5h-1zM544 521h1v8h-1zM648 521h1v7h-1zM656 521h1v5h-1zM756 521h1v61h-1zM225 522h1v11h-1zM525 522h1v82h-1zM654 522h1v6h-1zM251 523h1v4h-1zM543 523h1v10h-1zM44 524h1v60h-1zM252 524h1v5h-1zM301 524h1v73h-1zM580 524h1v26h-1zM755 524h1v60h-1zM224 525h1v11h-1zM649 525h2v4h-2zM652 525h2v4h-2zM45 526h1v60h-1zM253 526h1v5h-1zM296 526h1v13h-1zM542 526h1v19h-1zM651 526h1v3h-1zM754 526h1v60h-1zM254 528h1v5h-1zM46 529h1v59h-1zM223 529h1v11h-1zM255 529h1v5h-1zM293 529h2v1h-2zM306 529h1v67h-1zM541 529h1v13h-1zM753 529h1v59h-1zM278 530h1v76h-1zM293 530h1v72h-1zM256 531h1v5h-1zM292 531h1v75h-1zM295 531h1v16h-1zM526 531h1v72h-1zM47 532h1v58h-1zM222 532h1v13h-1zM540 532h1v8h-1zM752 532h1v58h-1zM175 533h1v3h-1zM257 533h1v5h-1zM617 533h1v9h-1zM176 534h1v3h-1zM225 534h1v22h-1zM294 534h1v19h-1zM539 534h1v3h-1zM579 534h1v24h-1zM615 534h2v8h-2zM618 534h2v7h-2zM48 535h1v56h-1zM177 535h1v3h-1zM258 535h1v5h-1zM282 535h1v72h-1zM291 535h1v72h-1zM620 535h1v5h-1zM751 535h1v56h-1zM178 536h1v4h-1zM221 536h1v72h-1zM501 536h1v56h-1zM614 536h1v8h-1zM49 537h1v56h-1zM179 537h1v4h-1zM259 537h1v5h-1zM621 537h1v2h-1zM750 537h1v56h-1zM180 538h1v4h-1zM527 538h1v65h-1zM260 539h1v6h-1zM613 539h1v6h-1zM50 540h1v55h-1zM181 540h1v3h-1zM220 540h1v67h-1zM543 540h1v7h-1zM749 540h1v55h-1zM182 541h1v3h-1zM224 541h1v24h-1zM261 541h1v6h-1zM612 541h1v5h-1zM51 542h1v55h-1zM183 542h1v3h-1zM505 542h1v51h-1zM615 542h1v1h-1zM748 542h1v55h-1zM184 543h1v4h-1zM262 543h1v7h-1zM504 543h1v49h-1zM544 543h1v7h-1zM578 543h1v23h-1zM611 543h1v4h-1zM185 544h1v4h-1zM219 544h1v60h-1zM506 544h1v49h-1zM610 544h1v4h-1zM52 545h1v54h-1zM186 545h1v4h-1zM263 545h1v8h-1zM545 545h1v7h-1zM609 545h1v4h-1zM747 545h1v54h-1zM187 546h1v4h-1zM528 546h1v56h-1zM608 546h1v4h-1zM53 547h1v53h-1zM223 547h1v58h-1zM746 547h1v53h-1zM188 548h1v4h-1zM264 548h1v7h-1zM546 548h1v6h-1zM607 548h1v4h-1zM54 549h1v53h-1zM189 549h1v4h-1zM300 549h1v48h-1zM606 549h1v4h-1zM745 549h1v53h-1zM190 550h1v4h-1zM265 550h1v8h-1zM290 550h1v57h-1zM547 550h1v7h-1zM605 550h1v4h-1zM191 551h1v4h-1zM577 551h1v22h-1zM604 551h1v4h-1zM55 552h1v52h-1zM218 552h1v18h-1zM502 552h1v40h-1zM520 552h1v51h-1zM548 552h1v7h-1zM603 552h1v4h-1zM744 552h1v52h-1zM192 553h1v4h-1zM266 553h1v8h-1zM289 553h1v54h-1zM503 553h1v39h-1zM507 553h1v40h-1zM602 553h1v4h-1zM56 554h1v51h-1zM193 554h1v4h-1zM222 554h1v53h-1zM307 554h1v42h-1zM601 554h1v4h-1zM743 554h1v51h-1zM194 555h1v4h-1zM277 555h1v50h-1zM549 555h1v6h-1zM582 555h1v15h-1zM600 555h1v4h-1zM57 556h1v51h-1zM195 556h1v4h-1zM267 556h1v8h-1zM742 556h1v51h-1zM550 557h1v7h-1zM599 557h1v4h-1zM58 558h1v51h-1zM196 558h1v4h-1zM516 558h1v43h-1zM598 558h1v4h-1zM741 558h1v51h-1zM197 559h1v4h-1zM268 559h1v8h-1zM551 559h1v7h-1zM597 559h1v4h-1zM59 560h1v50h-1zM198 560h1v5h-1zM529 560h1v36h-1zM576 560h1v42h-1zM596 560h1v4h-1zM740 560h1v50h-1zM199 561h1v5h-1zM299 561h1v36h-1zM552 561h1v7h-1zM581 561h1v13h-1zM595 561h1v4h-1zM60 562h1v50h-1zM269 562h1v8h-1zM515 562h1v39h-1zM739 562h1v50h-1zM200 563h1v5h-1zM594 563h1v4h-1zM201 564h1v5h-1zM294 564h1v7h-1zM298 564h1v34h-1zM510 564h1v35h-1zM553 564h1v6h-1zM593 564h1v4h-1zM61 565h1v49h-1zM202 565h1v6h-1zM270 565h1v8h-1zM295 565h3v34h-3zM509 565h1v34h-1zM592 565h1v4h-1zM738 565h1v49h-1zM554 566h1v7h-1zM580 566h1v12h-1zM591 566h1v4h-1zM62 567h1v48h-1zM203 567h1v5h-1zM737 567h1v48h-1zM204 568h1v6h-1zM271 568h1v9h-1zM555 568h1v7h-1zM575 568h1v36h-1zM590 568h1v3h-1zM63 569h1v48h-1zM508 569h1v30h-1zM589 569h1v4h-1zM736 569h1v48h-1zM205 570h1v6h-1zM579 570h1v19h-1zM588 570h1v4h-1zM64 571h1v47h-1zM272 571h1v16h-1zM556 571h1v6h-1zM587 571h1v4h-1zM735 571h1v47h-1zM206 572h1v5h-1zM65 573h1v47h-1zM207 573h1v6h-1zM557 573h1v6h-1zM586 573h1v4h-1zM734 573h1v47h-1zM66 574h1v47h-1zM273 574h1v13h-1zM578 574h1v22h-1zM585 574h1v4h-1zM733 574h1v47h-1zM208 575h1v6h-1zM558 575h1v7h-1zM584 575h1v5h-1zM67 576h1v47h-1zM574 576h1v28h-1zM583 576h1v6h-1zM732 576h1v47h-1zM209 577h1v6h-1zM274 577h1v10h-1zM559 577h1v7h-1zM577 577h1v21h-1zM582 577h1v6h-1zM68 578h1v46h-1zM294 578h1v23h-1zM492 578h3v6h-3zM524 578h1v26h-1zM731 578h1v46h-1zM210 579h1v6h-1zM380 579h32v4h-32zM454 579h38v3h-38zM581 579h1v6h-1zM69 580h1v46h-1zM218 580h1v22h-1zM275 580h1v26h-1zM308 580h26v6h-26zM365 580h15v4h-15zM412 580h42v3h-42zM560 580h1v7h-1zM580 580h1v7h-1zM730 580h1v46h-1zM211 581h1v6h-1zM213 581h3v2h-3zM276 581h1v24h-1zM334 581h31v3h-31zM70 582h1v45h-1zM212 582h1v7h-1zM216 582h1v6h-1zM454 582h35v1h-35zM561 582h1v8h-1zM729 582h1v45h-1zM214 583h2v2h-2zM380 583h11v1h-11zM462 583h25v1h-25zM490 583h2v1h-2zM71 584h1v45h-1zM213 584h1v7h-1zM217 584h1v6h-1zM271 584h1v4h-1zM334 584h23v1h-23zM474 584h11v1h-11zM521 584h1v19h-1zM573 584h1v15h-1zM728 584h1v45h-1zM215 585h1v2h-1zM269 585h2v3h-2zM334 585h14v3h-14zM562 585h1v7h-1zM72 586h1v44h-1zM214 586h1v10h-1zM267 586h2v3h-2zM308 586h6v1h-6zM315 586h9v2h-9zM326 586h8v1h-8zM348 586h1v1h-1zM373 586h5v3h-5zM727 586h1v44h-1zM73 587h1v44h-1zM265 587h2v3h-2zM308 587h4v1h-4zM314 587h1v8h-1zM324 587h1v4h-1zM327 587h7v3h-7zM370 587h3v1h-3zM378 587h2v2h-2zM475 587h11v2h-11zM563 587h1v8h-1zM726 587h1v44h-1zM215 588h1v14h-1zM263 588h2v3h-2zM269 588h1v1h-1zM308 588h2v8h-2zM312 588h2v7h-2zM315 588h3v1h-3zM322 588h2v3h-2zM325 588h2v3h-2zM334 588h11v1h-11zM371 588h2v1h-2zM403 588h8v2h-8zM412 588h10v1h-10zM486 588h15v4h-15zM590 588h4v3h-4zM74 589h1v44h-1zM195 589h9v4h-9zM224 589h1v11h-1zM262 589h1v3h-1zM267 589h1v1h-1zM310 589h2v6h-2zM315 589h1v6h-1zM317 589h5v6h-5zM334 589h4v1h-4zM387 589h7v2h-7zM402 589h1v1h-1zM412 589h9v1h-9zM477 589h9v1h-9zM523 589h1v15h-1zM586 589h4v2h-4zM594 589h5v2h-5zM725 589h1v44h-1zM190 590h5v3h-5zM204 590h5v3h-5zM216 590h1v12h-1zM260 590h2v3h-2zM265 590h1v1h-1zM316 590h1v5h-1zM327 590h1v1h-1zM404 590h4v1h-4zM414 590h4v1h-4zM479 590h7v1h-7zM564 590h1v9h-1zM572 590h1v7h-1zM583 590h3v3h-3zM599 590h3v3h-3zM75 591h1v43h-1zM187 591h3v2h-3zM209 591h3v3h-3zM217 591h1v11h-1zM258 591h2v3h-2zM263 591h1v1h-1zM388 591h5v1h-5zM485 591h1v1h-1zM538 591h1v4h-1zM581 591h2v3h-2zM586 591h3v1h-3zM596 591h3v1h-3zM602 591h2v3h-2zM724 591h1v43h-1zM76 592h1v44h-1zM184 592h3v2h-3zM212 592h2v3h-2zM256 592h2v2h-2zM322 592h13v2h-13zM537 592h1v2h-1zM539 592h2v3h-2zM579 592h2v3h-2zM604 592h2v3h-2zM723 592h1v44h-1zM181 593h3v2h-3zM187 593h1v1h-1zM253 593h3v2h-3zM303 593h1v3h-1zM335 593h1v1h-1zM541 593h2v3h-2zM565 593h1v8h-1zM606 593h2v3h-2zM77 594h1v43h-1zM179 594h2v2h-2zM184 594h1v1h-1zM247 594h6v2h-6zM256 594h1v1h-1zM274 594h1v12h-1zM302 594h1v2h-1zM322 594h6v1h-6zM543 594h1v3h-1zM608 594h2v3h-2zM722 594h1v43h-1zM176 595h3v2h-3zM181 595h2v1h-2zM235 595h12v2h-12zM253 595h1v1h-1zM270 595h4v8h-4zM494 595h14v3h-14zM522 595h1v9h-1zM544 595h2v2h-2zM566 595h1v9h-1zM571 595h1v1h-1zM610 595h3v3h-3zM78 596h1v42h-1zM174 596h2v3h-2zM179 596h1v1h-1zM232 596h3v2h-3zM247 596h4v1h-4zM263 596h7v7h-7zM493 596h1v1h-1zM546 596h6v3h-6zM613 596h3v3h-3zM721 596h1v42h-1zM79 597h1v43h-1zM171 597h3v2h-3zM176 597h2v1h-2zM231 597h1v1h-1zM235 597h11v1h-11zM257 597h6v7h-6zM545 597h1v1h-1zM552 597h2v2h-2zM616 597h3v3h-3zM720 597h1v43h-1zM168 598h3v3h-3zM252 598h5v6h-5zM554 598h1v1h-1zM567 598h1v8h-1zM612 598h1v1h-1zM619 598h4v3h-4zM80 599h1v42h-1zM165 599h3v3h-3zM171 599h2v1h-2zM249 599h3v5h-3zM295 599h1v1h-1zM615 599h1v1h-1zM623 599h5v3h-5zM719 599h1v42h-1zM161 600h4v2h-4zM248 600h1v4h-1zM340 600h13v3h-13zM618 600h1v1h-1zM628 600h6v3h-6zM81 601h1v41h-1zM154 601h7v2h-7zM247 601h1v3h-1zM337 601h3v2h-3zM353 601h2v1h-2zM568 601h1v4h-1zM622 601h1v1h-1zM634 601h4v3h-4zM718 601h1v41h-1zM82 602h1v42h-1zM151 602h3v2h-3zM161 602h3v1h-3zM246 602h1v1h-1zM298 602h36v2h-36zM627 602h1v1h-1zM638 602h3v3h-3zM717 602h1v42h-1zM150 603h1v1h-1zM154 603h6v1h-6zM263 603h5v1h-5zM273 603h1v4h-1zM293 603h5v3h-5zM633 603h1v1h-1zM641 603h3v3h-3zM83 604h1v41h-1zM152 604h2v1h-2zM271 604h2v3h-2zM298 604h35v1h-35zM644 604h3v3h-3zM716 604h1v41h-1zM84 605h1v41h-1zM268 605h3v2h-3zM298 605h6v1h-6zM647 605h2v3h-2zM715 605h1v41h-1zM649 606h2v3h-2zM85 607h1v41h-1zM269 607h3v1h-3zM646 607h1v1h-1zM651 607h1v2h-1zM714 607h1v40h-1zM86 608h1v41h-1zM648 608h1v1h-1zM652 608h1v1h-1zM713 608h1v41h-1zM87 610h1v40h-1zM712 610h1v40h-1zM88 611h1v40h-1zM711 611h1v40h-1zM89 613h1v40h-1zM710 613h1v40h-1zM90 614h1v40h-1zM709 614h1v40h-1zM91 616h1v39h-1zM708 616h1v39h-1zM92 617h1v39h-1zM707 617h1v39h-1zM93 619h1v38h-1zM706 619h1v38h-1zM94 620h1v39h-1zM705 620h1v39h-1zM95 621h1v39h-1zM704 621h1v39h-1zM96 623h1v38h-1zM703 623h1v38h-1zM97 624h1v38h-1zM702 624h1v38h-1zM98 625h1v38h-1zM701 625h1v38h-1zM99 627h1v37h-1zM700 627h1v37h-1zM100 628h1v37h-1zM699 628h1v37h-1zM101 629h1v38h-1zM698 629h1v38h-1zM102 631h1v37h-1zM697 631h1v37h-1zM103 632h1v37h-1zM696 632h1v37h-1zM104 633h1v37h-1zM695 633h1v37h-1zM105 634h1v37h-1zM694 634h1v37h-1zM106 636h1v36h-1zM693 636h1v36h-1zM107 637h1v36h-1zM692 637h1v36h-1zM108 638h1v36h-1zM691 638h1v36h-1zM109 639h1v36h-1zM690 639h1v36h-1zM110 641h1v35h-1zM689 641h1v35h-1zM111 642h1v35h-1zM688 642h1v35h-1zM112 643h1v35h-1zM687 643h1v35h-1zM113 644h1v35h-1zM686 644h1v35h-1zM114 645h1v35h-1zM685 645h1v35h-1zM115 646h1v36h-1zM684 646h1v36h-1zM116 648h1v35h-1zM683 648h1v35h-1zM117 649h1v34h-1zM682 649h1v35h-1zM118 650h1v34h-1zM681 650h1v35h-1zM119 651h1v34h-1zM680 651h1v34h-1zM120 652h1v34h-1zM679 652h1v34h-1zM121 653h1v34h-1zM678 653h1v34h-1zM122 654h1v34h-1zM677 654h1v34h-1zM123 655h1v34h-1zM676 655h1v34h-1zM124 657h1v33h-1zM675 657h1v33h-1zM125 658h1v33h-1zM674 658h1v33h-1zM126 659h1v33h-1zM673 659h1v33h-1zM127 660h1v33h-1zM672 660h1v33h-1zM128 661h1v33h-1zM671 661h1v33h-1zM129 662h1v33h-1zM670 662h1v33h-1zM130 663h1v33h-1zM669 663h1v33h-1zM131 664h1v33h-1zM668 664h1v33h-1zM132 665h1v33h-1zM667 665h1v33h-1zM133 666h1v33h-1zM666 666h1v33h-1zM134 667h1v33h-1zM665 667h1v33h-1zM135 668h1v32h-1zM664 668h1v32h-1zM136 669h1v32h-1zM663 669h1v32h-1zM137 670h1v32h-1zM662 670h1v32h-1zM138 671h1v32h-1zM661 671h1v32h-1zM139 672h1v32h-1zM660 672h1v32h-1zM140 673h1v32h-1zM659 673h1v32h-1zM141 674h1v32h-1zM658 674h1v32h-1zM142 675h2v31h-2zM656 675h2v31h-2zM144 676h1v32h-1zM655 676h1v32h-1zM145 677h1v32h-1zM654 677h1v32h-1zM146 678h1v32h-1zM653 678h1v32h-1zM147 679h1v31h-1zM652 679h1v32h-1zM148 680h1v31h-1zM651 680h1v31h-1zM149 681h1v31h-1zM650 681h1v31h-1zM150 682h1v31h-1zM649 682h1v31h-1zM151 683h1v31h-1zM648 683h1v31h-1zM152 684h2v30h-2zM646 684h2v31h-2zM154 685h1v31h-1zM645 685h1v31h-1zM155 686h1v31h-1zM644 686h1v31h-1zM156 687h1v31h-1zM643 687h1v31h-1zM157 688h1v30h-1zM642 688h1v30h-1zM158 689h1v30h-1zM641 689h1v30h-1zM159 690h2v30h-2zM639 690h2v30h-2zM161 691h1v30h-1zM638 691h1v30h-1zM162 692h1v30h-1zM637 692h1v30h-1zM163 693h1v30h-1zM636 693h1v30h-1zM164 694h2v30h-2zM634 694h2v30h-2zM166 695h1v30h-1zM633 695h1v30h-1zM167 696h1v30h-1zM632 696h1v30h-1zM168 697h1v29h-1zM631 697h1v29h-1zM169 698h2v29h-2zM629 698h2v29h-2zM171 699h1v30h-1zM628 699h1v30h-1zM172 700h1v29h-1zM627 700h1v29h-1zM173 701h2v29h-2zM625 701h2v29h-2zM175 702h1v29h-1zM624 702h1v29h-1zM176 703h1v29h-1zM623 703h1v29h-1zM177 704h2v29h-2zM621 704h2v29h-2zM179 705h1v29h-1zM620 705h1v29h-1zM143 706h1v1h-1zM180 706h1v29h-1zM619 706h1v29h-1zM656 706h1v1h-1zM181 707h2v28h-2zM617 707h2v28h-2zM183 708h1v29h-1zM616 708h1v29h-1zM184 709h2v28h-2zM614 709h2v28h-2zM186 710h1v29h-1zM613 710h1v29h-1zM187 711h2v28h-2zM611 711h2v28h-2zM189 712h1v28h-1zM610 712h1v28h-1zM190 713h2v28h-2zM608 713h2v28h-2zM153 714h1v1h-1zM192 714h1v28h-1zM607 714h1v28h-1zM193 715h2v28h-2zM605 715h2v28h-2zM195 716h1v28h-1zM604 716h1v28h-1zM196 717h2v28h-2zM602 717h2v28h-2zM198 718h1v28h-1zM601 718h1v28h-1zM199 719h2v27h-2zM599 719h2v27h-2zM160 720h1v1h-1zM201 720h2v28h-2zM597 720h2v28h-2zM639 720h1v1h-1zM203 721h1v28h-1zM596 721h1v28h-1zM204 722h2v27h-2zM594 722h2v27h-2zM206 723h2v27h-2zM592 723h2v27h-2zM208 724h1v27h-1zM591 724h1v27h-1zM209 725h2v27h-2zM589 725h2v27h-2zM211 726h2v27h-2zM587 726h2v27h-2zM170 727h1v1h-1zM213 727h1v27h-1zM586 727h1v27h-1zM629 727h1v1h-1zM214 728h2v27h-2zM584 728h2v27h-2zM216 729h2v27h-2zM582 729h2v27h-2zM174 730h1v1h-1zM218 730h2v27h-2zM580 730h2v27h-2zM625 730h1v1h-1zM220 731h2v27h-2zM578 731h2v27h-2zM222 732h2v27h-2zM576 732h2v27h-2zM224 733h2v27h-2zM574 733h2v27h-2zM226 734h1v27h-1zM573 734h1v27h-1zM182 735h1v1h-1zM227 735h2v26h-2zM571 735h2v26h-2zM617 735h1v1h-1zM229 736h2v26h-2zM569 736h2v26h-2zM185 737h1v1h-1zM231 737h2v26h-2zM567 737h2v26h-2zM614 737h1v1h-1zM233 738h2v26h-2zM565 738h2v26h-2zM188 739h1v1h-1zM235 739h3v26h-3zM562 739h3v26h-3zM611 739h1v1h-1zM238 740h2v26h-2zM560 740h2v26h-2zM191 741h1v1h-1zM240 741h2v26h-2zM558 741h2v26h-2zM608 741h1v1h-1zM242 742h2v26h-2zM556 742h2v26h-2zM244 743h2v26h-2zM554 743h2v26h-2zM246 744h2v26h-2zM552 744h2v26h-2zM248 745h3v25h-3zM549 745h3v25h-3zM200 746h1v1h-1zM251 746h2v26h-2zM547 746h2v26h-2zM599 746h1v1h-1zM253 747h2v25h-2zM545 747h2v25h-2zM255 748h3v25h-3zM542 748h3v25h-3zM205 749h1v1h-1zM258 749h2v25h-2zM540 749h2v25h-2zM594 749h1v1h-1zM207 750h1v1h-1zM260 750h3v25h-3zM537 750h3v25h-3zM592 750h1v1h-1zM263 751h2v25h-2zM535 751h2v25h-2zM210 752h1v1h-1zM265 752h3v25h-3zM532 752h3v25h-3zM589 752h1v1h-1zM212 753h1v1h-1zM268 753h3v25h-3zM529 753h3v25h-3zM587 753h1v1h-1zM271 754h3v25h-3zM527 754h2v25h-2zM274 755h2v25h-2zM524 755h3v25h-3zM276 756h3v25h-3zM521 756h3v25h-3zM279 757h3v25h-3zM518 757h3v25h-3zM282 758h3v25h-3zM515 758h3v25h-3zM285 759h4v25h-4zM512 759h3v25h-3zM289 760h3v25h-3zM508 760h4v24h-4zM228 761h1v1h-1zM292 761h3v24h-3zM505 761h3v25h-3zM571 761h1v1h-1zM230 762h1v1h-1zM295 762h4v24h-4zM501 762h4v24h-4zM569 762h1v1h-1zM299 763h3v24h-3zM498 763h3v24h-3zM567 763h1v1h-1zM302 764h4v24h-4zM494 764h4v24h-4zM237 765h1v1h-1zM306 765h4v24h-4zM490 765h4v24h-4zM562 765h1v1h-1zM239 766h1v1h-1zM310 766h4v24h-4zM486 766h4v24h-4zM560 766h1v1h-1zM314 767h5v24h-5zM481 767h5v24h-5zM558 767h1v1h-1zM319 768h5v24h-5zM477 768h4v24h-4zM324 769h4v24h-4zM472 769h5v24h-5zM249 770h2v1h-2zM328 770h6v24h-6zM466 770h6v24h-6zM549 770h2v1h-2zM334 771h5v24h-5zM460 771h6v24h-6zM254 772h1v1h-1zM339 772h7v24h-7zM454 772h6v24h-6zM545 772h1v1h-1zM256 773h2v1h-2zM346 773h8v24h-8zM446 773h8v24h-8zM542 773h2v1h-2zM259 774h1v1h-1zM354 774h8v24h-8zM438 774h8v24h-8zM540 774h1v1h-1zM261 775h2v1h-2zM362 775h12v24h-12zM426 775h12v24h-12zM537 775h2v1h-2zM264 776h1v1h-1zM374 776h52v23h-52zM535 776h1v1h-1zM267 777h1v1h-1zM532 777h1v1h-1zM270 778h1v1h-1zM529 778h1v1h-1zM273 779h1v1h-1zM508 784h3v1h-3zM293 785h2v1h-2zM296 786h3v1h-3zM501 786h3v1h-3zM300 787h2v1h-2zM498 787h2v1h-2zM304 788h2v1h-2zM494 788h2v1h-2zM308 789h2v1h-2zM490 789h2v1h-2zM312 790h2v1h-2zM486 790h2v1h-2zM317 791h2v1h-2zM481 791h2v1h-2zM321 792h3v1h-3zM477 792h1v1h-1zM327 793h1v1h-1zM472 793h1v1h-1zM332 794h2v1h-2zM466 794h2v1h-2zM460 795h2v1h-2zM345 796h1v1h-1zM454 796h1v1h-1zM446 797h1v1h-1zM375 799h50v1h-50z"></path></g></svg>