<svg xmlns="http://www.w3.org/2000/svg" viewBox="0 0 800 800" width="800" height="800"><defs><clipPath id="c"><circle cx="400" cy="400" r="400"></circle></clipPath></defs><g clip-path="url(#c)"><circle cx="400" cy="400" r="400" fill="#0d1b3e"></circle><path fill="#bcd9f6" d="M380 0h40v23h-40zM365 1h15v23h-15zM420 1h15v23h-15zM355 2h10v23h-10zM435 2h10v23h-10zM347 3h8v23h-8zM445 3h8v23h-8zM340 4h7v23h-7zM453 4h7v23h-7zM334 5h6v23h-6zM460 5h6v23h-6zM328 6h6v23h-6zM466 6h6v23h-6zM323 7h5v23h-5zM472 7h5v23h-5zM318 8h5v24h-5zM477 8h5v23h-5zM313 9h5v24h-5zM482 9h5v24h-5zM309 10h4v24h-4zM487 10h4v24h-4zM305 11h4v24h-4zM491 11h4v24h-4zM301 12h4v24h-4zM495 12h5v24h-5zM297 13h4v24h-4zM500 13h3v24h-3zM293 14h4v24h-4zM503 14h4v24h-4zM290 15h3v24h-3zM507 15h3v24h-3zM286 16h4v24h-4zM510 16h4v24h-4zM283 17h3v24h-3zM514 17h3v24h-3zM280 18h3v24h-3zM517 18h4v24h-4zM277 19h3v24h-3zM521 19h3v24h-3zM273 20h4v24h-4zM524 20h3v25h-3zM270 21h3v25h-3zM527 21h3v25h-3zM268 22h2v25h-2zM530 22h2v25h-2zM265 23h3v24h-3zM380 23h12v1h-12zM408 23h12v1h-12zM532 23h3v24h-3zM262 24h3v25h-3zM365 24h6v1h-6zM429 24h6v1h-6zM535 24h3v25h-3zM259 25h3v25h-3zM355 25h5v1h-5zM440 25h5v1h-5zM538 25h3v25h-3zM257 26h2v25h-2zM347 26h4v1h-4zM448 26h5v1h-5zM541 26h2v25h-2zM254 27h3v25h-3zM340 27h5v1h-5zM456 27h4v1h-4zM543 27h3v25h-3zM252 28h2v25h-2zM334 28h4v1h-4zM462 28h4v1h-4zM546 28h2v25h-2zM249 29h3v25h-3zM328 29h5v1h-5zM468 29h4v1h-4zM548 29h3v25h-3zM247 30h2v25h-2zM323 30h4v1h-4zM473 30h4v1h-4zM551 30h2v25h-2zM244 31h3v25h-3zM478 31h4v1h-4zM553 31h3v25h-3zM242 32h2v25h-2zM556 32h2v25h-2zM240 33h2v25h-2zM558 33h2v25h-2zM237 34h3v25h-3zM560 34h3v25h-3zM235 35h2v26h-2zM563 35h2v26h-2zM233 36h2v26h-2zM301 36h1v1h-1zM499 36h1v1h-1zM565 36h2v26h-2zM231 37h2v26h-2zM297 37h1v1h-1zM502 37h1v1h-1zM567 37h2v26h-2zM229 38h2v26h-2zM293 38h2v1h-2zM506 38h1v1h-1zM569 38h2v26h-2zM227 39h2v26h-2zM290 39h1v1h-1zM509 39h1v1h-1zM571 39h2v26h-2zM224 40h3v26h-3zM286 40h2v1h-2zM512 40h2v1h-2zM573 40h3v26h-3zM223 41h1v26h-1zM283 41h2v1h-2zM515 41h2v1h-2zM576 41h2v26h-2zM221 42h2v26h-2zM280 42h2v1h-2zM519 42h2v1h-2zM578 42h2v26h-2zM219 43h2v26h-2zM277 43h2v1h-2zM522 43h2v1h-2zM580 43h2v26h-2zM217 44h2v26h-2zM273 44h3v1h-3zM582 44h1v27h-1zM215 45h2v26h-2zM583 45h2v26h-2zM213 46h2v26h-2zM585 46h2v26h-2zM211 47h2v26h-2zM265 47h2v1h-2zM533 47h2v1h-2zM587 47h2v26h-2zM209 48h2v27h-2zM589 48h2v27h-2zM207 49h2v27h-2zM591 49h2v27h-2zM205 50h2v27h-2zM259 50h1v1h-1zM540 50h1v1h-1zM593 50h2v27h-2zM204 51h1v27h-1zM595 51h1v27h-1zM202 52h2v27h-2zM254 52h1v1h-1zM545 52h1v1h-1zM596 52h2v27h-2zM200 53h2v27h-2zM598 53h2v27h-2zM198 54h2v27h-2zM249 54h1v1h-1zM550 54h1v1h-1zM600 54h2v27h-2zM197 55h1v28h-1zM247 55h1v1h-1zM552 55h1v1h-1zM602 55h1v27h-1zM195 56h2v27h-2zM244 56h2v1h-2zM554 56h2v1h-2zM603 56h2v27h-2zM193 57h2v27h-2zM242 57h1v1h-1zM557 57h1v1h-1zM605 57h2v27h-2zM192 58h1v28h-1zM240 58h1v1h-1zM559 58h1v1h-1zM607 58h1v28h-1zM190 59h2v27h-2zM237 59h2v1h-2zM561 59h2v1h-2zM608 59h2v27h-2zM188 60h2v28h-2zM610 60h2v28h-2zM187 61h1v28h-1zM612 61h1v28h-1zM185 62h2v28h-2zM613 62h2v28h-2zM184 63h1v28h-1zM615 63h1v28h-1zM182 64h2v28h-2zM616 64h2v28h-2zM181 65h1v28h-1zM618 65h1v28h-1zM179 66h2v28h-2zM224 66h1v1h-1zM575 66h1v1h-1zM619 66h2v28h-2zM178 67h1v28h-1zM577 67h1v1h-1zM621 67h1v28h-1zM176 68h2v28h-2zM579 68h1v1h-1zM622 68h2v28h-2zM175 69h1v29h-1zM219 69h1v1h-1zM581 69h1v1h-1zM624 69h1v29h-1zM173 70h2v28h-2zM217 70h1v1h-1zM625 70h2v28h-2zM172 71h1v29h-1zM215 71h1v1h-1zM584 71h1v1h-1zM627 71h1v29h-1zM170 72h2v29h-2zM213 72h1v1h-1zM586 72h1v1h-1zM628 72h2v29h-2zM169 73h1v29h-1zM211 73h1v1h-1zM588 73h1v1h-1zM630 73h1v29h-1zM167 74h2v29h-2zM631 74h2v29h-2zM166 75h1v30h-1zM633 75h1v29h-1zM165 76h1v29h-1zM634 76h1v29h-1zM163 77h2v29h-2zM205 77h1v1h-1zM594 77h1v1h-1zM635 77h2v29h-2zM162 78h1v30h-1zM637 78h1v30h-1zM161 79h1v29h-1zM638 79h1v30h-1zM159 80h2v29h-2zM200 80h1v1h-1zM599 80h1v1h-1zM639 80h2v29h-2zM158 81h1v30h-1zM198 81h1v1h-1zM601 81h1v1h-1zM641 81h1v30h-1zM157 82h1v30h-1zM642 82h1v30h-1zM155 83h2v30h-2zM195 83h1v1h-1zM604 83h1v1h-1zM643 83h2v30h-2zM154 84h1v30h-1zM193 84h1v1h-1zM606 84h1v1h-1zM645 84h1v30h-1zM153 85h1v30h-1zM646 85h1v30h-1zM152 86h1v30h-1zM190 86h1v1h-1zM609 86h1v1h-1zM647 86h1v30h-1zM150 87h2v30h-2zM648 87h2v30h-2zM149 88h1v31h-1zM650 88h1v31h-1zM148 89h1v31h-1zM651 89h1v31h-1zM147 90h1v31h-1zM652 90h2v31h-2zM145 91h2v30h-2zM654 91h1v31h-1zM144 92h1v31h-1zM182 92h1v1h-1zM617 92h1v1h-1zM655 92h1v31h-1zM143 93h1v31h-1zM656 93h1v31h-1zM142 94h1v31h-1zM179 94h1v1h-1zM620 94h1v1h-1zM657 94h1v31h-1zM141 95h1v31h-1zM658 95h1v31h-1zM139 96h2v31h-2zM176 96h1v1h-1zM623 96h1v1h-1zM659 96h2v31h-2zM138 97h1v32h-1zM661 97h1v32h-1zM137 98h1v32h-1zM173 98h1v1h-1zM626 98h1v1h-1zM662 98h1v32h-1zM136 99h1v32h-1zM663 99h1v32h-1zM135 100h1v32h-1zM664 100h1v32h-1zM134 101h1v32h-1zM665 101h1v32h-1zM133 102h1v32h-1zM666 102h1v32h-1zM132 103h1v32h-1zM167 103h1v1h-1zM632 103h1v1h-1zM667 103h2v32h-2zM130 104h2v32h-2zM669 104h1v33h-1zM129 105h1v33h-1zM670 105h1v33h-1zM128 106h1v33h-1zM163 106h1v1h-1zM636 106h1v1h-1zM671 106h1v33h-1zM127 107h1v33h-1zM672 107h1v33h-1zM126 108h1v33h-1zM673 108h1v33h-1zM125 109h1v33h-1zM159 109h1v1h-1zM640 109h1v1h-1zM674 109h1v33h-1zM124 110h1v33h-1zM675 110h1v33h-1zM123 111h1v33h-1zM676 111h1v33h-1zM122 112h1v33h-1zM677 112h1v33h-1zM121 113h1v33h-1zM155 113h1v1h-1zM644 113h1v1h-1zM678 113h1v33h-1zM120 114h1v34h-1zM679 114h1v34h-1zM119 115h1v34h-1zM680 115h1v34h-1zM118 116h1v34h-1zM681 116h1v34h-1zM117 117h1v34h-1zM150 117h1v1h-1zM649 117h1v1h-1zM682 117h1v34h-1zM116 118h1v34h-1zM683 118h1v34h-1zM115 119h1v34h-1zM684 119h1v34h-1zM114 120h1v34h-1zM685 120h1v34h-1zM113 121h1v35h-1zM145 121h1v1h-1zM686 121h1v35h-1zM112 122h1v35h-1zM687 122h1v35h-1zM111 123h1v35h-1zM688 123h1v35h-1zM110 124h1v35h-1zM689 124h1v35h-1zM109 125h1v35h-1zM690 125h1v35h-1zM108 126h1v35h-1zM691 126h1v35h-1zM107 127h1v36h-1zM139 127h1v1h-1zM660 127h1v1h-1zM692 127h1v36h-1zM106 128h1v36h-1zM693 128h1v36h-1zM105 129h1v36h-1zM694 129h1v36h-1zM104 130h1v37h-1zM695 130h1v37h-1zM696 131h1v37h-1zM103 132h1v36h-1zM102 133h1v36h-1zM697 133h1v36h-1zM101 134h1v36h-1zM698 134h1v36h-1zM100 135h1v37h-1zM668 135h1v1h-1zM699 135h1v37h-1zM99 136h1v37h-1zM130 136h1v1h-1zM700 136h1v37h-1zM98 137h1v37h-1zM701 137h1v37h-1zM97 138h1v38h-1zM702 138h1v38h-1zM96 139h1v38h-1zM703 139h1v38h-1zM95 141h1v37h-1zM704 141h1v37h-1zM94 142h1v38h-1zM705 142h1v38h-1zM93 143h1v38h-1zM706 143h1v38h-1zM92 144h1v39h-1zM707 144h1v39h-1zM91 145h1v39h-1zM708 145h1v39h-1zM90 147h1v38h-1zM709 147h1v38h-1zM89 148h1v39h-1zM710 148h1v39h-1zM88 149h1v39h-1zM711 149h1v39h-1zM87 150h1v40h-1zM712 150h1v40h-1zM86 152h1v39h-1zM713 152h1v39h-1zM85 153h1v40h-1zM714 153h1v40h-1zM84 154h1v40h-1zM715 154h1v40h-1zM83 155h1v41h-1zM716 155h1v41h-1zM82 157h1v40h-1zM717 157h1v40h-1zM81 158h1v41h-1zM718 158h1v41h-1zM80 159h1v42h-1zM719 159h1v42h-1zM79 161h1v41h-1zM720 161h1v41h-1zM78 162h1v42h-1zM721 162h1v42h-1zM77 163h1v43h-1zM722 163h1v43h-1zM76 165h1v42h-1zM723 165h1v42h-1zM75 166h1v43h-1zM724 166h1v43h-1zM74 167h1v44h-1zM725 167h1v44h-1zM73 169h1v43h-1zM726 169h1v43h-1zM72 170h1v44h-1zM727 170h1v44h-1zM71 172h1v44h-1zM728 172h1v44h-1zM70 173h1v45h-1zM729 173h1v45h-1zM69 175h1v44h-1zM730 175h1v44h-1zM68 176h1v45h-1zM731 176h1v45h-1zM67 178h1v45h-1zM732 178h1v45h-1zM66 179h1v46h-1zM733 179h1v46h-1zM65 181h1v46h-1zM734 181h1v46h-1zM64 182h1v47h-1zM735 182h1v47h-1zM63 184h1v47h-1zM736 184h1v47h-1zM62 185h1v48h-1zM737 185h1v48h-1zM61 187h1v48h-1zM738 187h1v48h-1zM60 188h1v49h-1zM739 188h1v49h-1zM59 190h1v49h-1zM740 190h1v49h-1zM466 191h4v2h-4zM58 192h1v49h-1zM465 192h1v3h-1zM470 192h2v3h-2zM741 192h1v49h-1zM57 193h1v50h-1zM464 193h1v8h-1zM466 193h1v1h-1zM469 193h1v1h-1zM472 193h1v7h-1zM742 193h1v50h-1zM463 194h1v6h-1zM473 194h1v4h-1zM56 195h1v51h-1zM471 195h1v6h-1zM743 195h1v51h-1zM55 197h1v51h-1zM744 197h1v51h-1zM54 198h1v52h-1zM465 198h1v4h-1zM470 198h1v4h-1zM745 198h1v52h-1zM469 199h1v4h-1zM53 200h1v52h-1zM466 200h3v3h-3zM746 200h1v52h-1zM52 202h1v53h-1zM747 202h1v53h-1zM51 204h1v53h-1zM748 204h1v53h-1zM50 205h1v55h-1zM749 205h1v55h-1zM49 207h1v55h-1zM343 207h2v4h-2zM547 207h4v3h-4zM750 207h1v55h-1zM341 208h2v4h-2zM345 208h2v4h-2zM545 208h2v3h-2zM551 208h2v3h-2zM48 209h1v56h-1zM340 209h1v9h-1zM347 209h1v9h-1zM544 209h1v11h-1zM553 209h2v10h-2zM751 209h1v56h-1zM339 210h1v8h-1zM348 210h1v7h-1zM555 210h1v8h-1zM47 211h1v56h-1zM338 211h1v5h-1zM349 211h1v4h-1zM543 211h1v8h-1zM552 211h1v1h-1zM752 211h1v56h-1zM341 212h1v7h-1zM346 212h1v7h-1zM556 212h1v4h-1zM46 213h1v57h-1zM337 213h1v1h-1zM542 213h1v3h-1zM753 213h1v57h-1zM342 214h2v6h-2zM345 214h1v5h-1zM45 215h1v58h-1zM344 215h1v5h-1zM754 215h1v58h-1zM297 216h2v3h-2zM44 217h1v59h-1zM545 217h1v4h-1zM552 217h1v4h-1zM755 217h1v59h-1zM241 218h2v13h-2zM546 218h1v4h-1zM551 218h1v4h-1zM43 219h1v59h-1zM239 219h2v12h-2zM243 219h2v11h-2zM298 219h1v1h-1zM547 219h4v3h-4zM553 219h1v1h-1zM756 219h1v60h-1zM238 220h1v10h-1zM245 220h1v10h-1zM42 221h1v61h-1zM237 221h1v9h-1zM246 221h1v8h-1zM402 221h4v3h-4zM757 221h1v61h-1zM41 222h1v63h-1zM236 222h1v7h-1zM400 222h2v3h-2zM406 222h1v4h-1zM758 222h1v63h-1zM399 223h1v11h-1zM407 223h2v4h-2zM247 224h1v1h-1zM398 224h1v10h-1zM405 224h1v1h-1zM40 225h1v63h-1zM235 225h1v2h-1zM397 225h1v8h-1zM400 225h1v1h-1zM409 225h1v8h-1zM759 225h1v63h-1zM410 226h1v7h-1zM39 227h1v64h-1zM408 227h1v7h-1zM760 227h1v64h-1zM396 228h1v5h-1zM411 228h1v5h-1zM38 229h1v65h-1zM394 229h2v4h-2zM407 229h1v5h-1zM412 229h1v4h-1zM761 229h1v65h-1zM243 230h1v1h-1zM391 230h3v3h-3zM413 230h1v3h-1zM37 231h1v67h-1zM389 231h2v3h-2zM400 231h1v4h-1zM405 231h2v4h-2zM414 231h2v3h-2zM762 231h1v67h-1zM386 232h3v3h-3zM401 232h4v3h-4zM416 232h1v2h-1zM36 233h1v68h-1zM384 233h2v2h-2zM391 233h1v1h-1zM417 233h2v2h-2zM763 233h1v68h-1zM381 234h3v2h-3zM419 234h2v2h-2zM35 235h1v70h-1zM378 235h3v2h-3zM384 235h1v1h-1zM421 235h2v2h-2zM764 235h1v70h-1zM375 236h3v2h-3zM381 236h1v1h-1zM423 236h2v2h-2zM34 237h1v72h-1zM372 237h3v2h-3zM378 237h1v1h-1zM425 237h2v2h-2zM765 237h1v72h-1zM333 238h5v13h-5zM369 238h3v2h-3zM375 238h1v1h-1zM424 238h1v1h-1zM427 238h2v2h-2zM331 239h2v9h-2zM338 239h1v11h-1zM366 239h3v2h-3zM372 239h1v1h-1zM426 239h1v1h-1zM429 239h2v2h-2zM33 240h1v73h-1zM339 240h1v6h-1zM363 240h3v2h-3zM369 240h1v1h-1zM428 240h1v1h-1zM431 240h2v2h-2zM766 240h1v73h-1zM330 241h1v5h-1zM340 241h1v3h-1zM360 241h3v2h-3zM366 241h1v1h-1zM430 241h1v1h-1zM433 241h2v2h-2zM32 242h1v76h-1zM357 242h3v2h-3zM363 242h1v1h-1zM432 242h1v1h-1zM435 242h1v3h-1zM608 242h4v3h-4zM767 242h1v76h-1zM354 243h3v2h-3zM360 243h1v1h-1zM434 243h1v1h-1zM436 243h2v2h-2zM607 243h1v7h-1zM612 243h1v7h-1zM31 244h1v78h-1zM351 244h3v2h-3zM357 244h1v1h-1zM438 244h2v2h-2zM450 244h1v12h-1zM606 244h1v5h-1zM613 244h1v4h-1zM768 244h1v78h-1zM348 245h3v2h-3zM354 245h1v1h-1zM437 245h1v1h-1zM440 245h2v3h-2zM448 245h2v11h-2zM451 245h2v11h-2zM608 245h1v1h-1zM611 245h1v5h-1zM345 246h3v2h-3zM351 246h1v1h-1zM439 246h1v1h-1zM442 246h6v3h-6zM453 246h1v9h-1zM30 247h1v80h-1zM342 247h3v2h-3zM348 247h1v1h-1zM454 247h1v8h-1zM769 247h1v80h-1zM332 248h1v4h-1zM339 248h3v2h-3zM608 248h3v3h-3zM29 249h1v83h-1zM331 249h1v4h-1zM443 249h5v1h-5zM455 249h1v6h-1zM770 249h1v84h-1zM328 250h3v5h-3zM444 250h4v1h-4zM325 251h3v3h-3zM445 251h3v2h-3zM456 251h1v5h-1zM28 252h1v86h-1zM322 252h3v2h-3zM403 252h6v3h-6zM457 252h1v5h-1zM771 252h1v86h-1zM319 253h3v2h-3zM401 253h2v4h-2zM409 253h2v3h-2zM446 253h2v1h-2zM458 253h2v5h-2zM27 254h1v91h-1zM315 254h4v2h-4zM322 254h2v1h-2zM326 254h2v1h-2zM399 254h2v3h-2zM411 254h2v3h-2zM447 254h1v1h-1zM460 254h2v2h-2zM772 254h1v91h-1zM311 255h4v2h-4zM319 255h1v1h-1zM327 255h3v2h-3zM398 255h1v3h-1zM403 255h4v1h-4zM408 255h1v1h-1zM413 255h2v3h-2zM462 255h3v2h-3zM307 256h4v2h-4zM315 256h1v1h-1zM396 256h2v3h-2zM403 256h3v35h-3zM410 256h1v1h-1zM415 256h1v3h-1zM465 256h2v2h-2zM26 257h1v95h-1zM304 257h3v2h-3zM311 257h1v1h-1zM327 257h2v2h-2zM395 257h1v3h-1zM402 257h1v35h-1zM406 257h1v35h-1zM412 257h1v1h-1zM416 257h2v3h-2zM460 257h1v3h-1zM467 257h3v2h-3zM773 257h1v95h-1zM273 258h2v9h-2zM300 258h4v2h-4zM307 258h1v1h-1zM326 258h1v5h-1zM393 258h2v3h-2zM407 258h1v20h-1zM414 258h1v1h-1zM418 258h2v3h-2zM459 258h1v1h-1zM461 258h1v3h-1zM470 258h3v2h-3zM25 259h1v101h-1zM267 259h6v8h-6zM275 259h6v8h-6zM297 259h3v2h-3zM304 259h1v1h-1zM327 259h1v2h-1zM392 259h1v3h-1zM408 259h1v19h-1zM420 259h1v4h-1zM462 259h1v2h-1zM473 259h2v2h-2zM774 259h1v101h-1zM264 260h3v8h-3zM281 260h2v9h-2zM293 260h4v2h-4zM300 260h1v1h-1zM325 260h1v5h-1zM390 260h2v3h-2zM401 260h1v33h-1zM409 260h2v8h-2zM417 260h1v1h-1zM421 260h2v3h-2zM463 260h1v2h-1zM472 260h1v1h-1zM475 260h3v2h-3zM262 261h2v10h-2zM283 261h2v9h-2zM290 261h3v2h-3zM297 261h1v1h-1zM389 261h1v3h-1zM400 261h1v33h-1zM411 261h1v8h-1zM419 261h1v1h-1zM423 261h1v3h-1zM464 261h1v2h-1zM478 261h3v2h-3zM24 262h1v109h-1zM261 262h1v12h-1zM285 262h5v2h-5zM293 262h1v1h-1zM324 262h1v6h-1zM387 262h2v3h-2zM399 262h1v32h-1zM412 262h1v8h-1zM424 262h2v3h-2zM465 262h1v2h-1zM477 262h1v1h-1zM481 262h3v2h-3zM775 262h1v109h-1zM179 263h4v3h-4zM260 263h1v14h-1zM290 263h1v1h-1zM386 263h1v3h-1zM397 263h2v32h-2zM413 263h2v8h-2zM422 263h1v1h-1zM426 263h2v3h-2zM466 263h2v2h-2zM480 263h1v1h-1zM484 263h2v2h-2zM178 264h1v7h-1zM183 264h2v6h-2zM259 264h1v32h-1zM285 264h4v9h-4zM384 264h2v2h-2zM396 264h1v32h-1zM415 264h1v9h-1zM428 264h1v3h-1zM468 264h1v3h-1zM483 264h1v1h-1zM486 264h3v2h-3zM515 264h5v14h-5zM23 265h1v127h-1zM258 265h1v30h-1zM323 265h1v5h-1zM383 265h1v3h-1zM395 265h1v31h-1zM416 265h2v9h-2zM425 265h1v1h-1zM429 265h2v3h-2zM467 265h1v1h-1zM469 265h1v3h-1zM489 265h3v2h-3zM514 265h1v12h-1zM520 265h1v12h-1zM776 265h1v128h-1zM177 266h1v3h-1zM179 266h1v6h-1zM257 266h1v28h-1zM289 266h1v28h-1zM381 266h2v2h-2zM384 266h1v1h-1zM393 266h2v31h-2zM418 266h1v35h-1zM427 266h1v1h-1zM431 266h2v3h-2zM470 266h1v3h-1zM488 266h1v1h-1zM492 266h3v2h-3zM512 266h2v10h-2zM521 266h1v11h-1zM185 267h1v1h-1zM267 267h1v1h-1zM279 267h2v1h-2zM322 267h1v5h-1zM379 267h2v2h-2zM392 267h1v31h-1zM419 267h2v34h-2zM433 267h2v3h-2zM471 267h1v2h-1zM491 267h1v1h-1zM495 267h3v2h-3zM522 267h1v10h-1zM22 268h1v264h-1zM256 268h1v26h-1zM264 268h2v1h-2zM290 268h1v26h-1zM378 268h1v2h-1zM381 268h1v1h-1zM390 268h2v31h-2zM410 268h1v1h-1zM421 268h1v34h-1zM435 268h2v3h-2zM472 268h2v2h-2zM494 268h1v1h-1zM498 268h3v2h-3zM511 268h1v8h-1zM777 268h1v264h-1zM180 269h3v2h-3zM255 269h1v26h-1zM264 269h1v1h-1zM282 269h1v1h-1zM321 269h1v5h-1zM376 269h2v2h-2zM379 269h1v1h-1zM389 269h1v31h-1zM409 269h1v10h-1zM422 269h2v34h-2zM432 269h1v1h-1zM437 269h2v3h-2zM474 269h1v3h-1zM497 269h1v1h-1zM501 269h3v2h-3zM510 269h1v6h-1zM21 270h1v260h-1zM183 270h1v1h-1zM284 270h1v2h-1zM291 270h1v20h-1zM374 270h2v2h-2zM387 270h2v30h-2zM410 270h1v9h-1zM424 270h2v15h-2zM434 270h1v1h-1zM439 270h2v4h-2zM473 270h1v1h-1zM475 270h1v3h-1zM499 270h2v1h-2zM504 270h6v2h-6zM778 270h1v260h-1zM180 271h2v1h-2zM254 271h1v19h-1zM262 271h1v1h-1zM320 271h1v5h-1zM373 271h1v2h-1zM376 271h1v1h-1zM386 271h1v30h-1zM411 271h1v9h-1zM414 271h1v1h-1zM426 271h1v15h-1zM436 271h1v1h-1zM441 271h2v4h-2zM476 271h1v3h-1zM502 271h2v1h-2zM292 272h1v16h-1zM371 272h2v2h-2zM374 272h1v1h-1zM384 272h2v30h-2zM412 272h1v9h-1zM427 272h2v15h-2zM438 272h1v1h-1zM443 272h2v4h-2zM477 272h1v2h-1zM505 272h5v1h-5zM20 273h1v254h-1zM286 273h3v3h-3zM319 273h1v6h-1zM369 273h2v2h-2zM383 273h1v30h-1zM413 273h1v9h-1zM429 273h2v7h-2zM445 273h2v4h-2zM478 273h2v2h-2zM507 273h3v1h-3zM253 274h1v13h-1zM293 274h1v11h-1zM368 274h1v2h-1zM381 274h2v13h-2zM414 274h2v9h-2zM417 274h1v26h-1zM431 274h2v6h-2zM447 274h1v4h-1zM480 274h1v3h-1zM509 274h1v1h-1zM523 274h1v3h-1zM779 274h1v252h-1zM366 275h2v2h-2zM369 275h1v1h-1zM380 275h1v13h-1zM416 275h1v10h-1zM433 275h2v7h-2zM448 275h2v4h-2zM479 275h1v1h-1zM481 275h1v3h-1zM524 275h3v2h-3zM287 276h2v19h-2zM318 276h1v5h-1zM364 276h2v2h-2zM378 276h2v7h-2zM435 276h2v7h-2zM450 276h2v4h-2zM482 276h1v3h-1zM513 276h1v1h-1zM527 276h3v2h-3zM19 277h1v246h-1zM363 277h1v2h-1zM366 277h1v1h-1zM377 277h1v7h-1zM437 277h2v7h-2zM446 277h1v1h-1zM452 277h2v5h-2zM483 277h1v3h-1zM525 277h2v1h-2zM530 277h4v2h-4zM780 277h1v246h-1zM317 278h1v5h-1zM361 278h2v2h-2zM364 278h1v1h-1zM375 278h2v6h-2zM439 278h1v7h-1zM454 278h1v5h-1zM484 278h2v2h-2zM516 278h4v1h-4zM529 278h1v1h-1zM534 278h4v2h-4zM359 279h2v2h-2zM374 279h1v7h-1zM407 279h1v14h-1zM440 279h1v6h-1zM449 279h1v1h-1zM455 279h2v5h-2zM486 279h1v3h-1zM517 279h3v1h-3zM533 279h1v1h-1zM538 279h3v2h-3zM18 280h1v240h-1zM252 280h1v2h-1zM316 280h1v6h-1zM358 280h1v3h-1zM361 280h1v1h-1zM372 280h2v6h-2zM408 280h1v5h-1zM429 280h1v8h-1zM432 280h1v1h-1zM441 280h1v6h-1zM451 280h1v1h-1zM457 280h1v5h-1zM485 280h1v1h-1zM487 280h1v3h-1zM518 280h3v2h-3zM536 280h2v1h-2zM541 280h3v2h-3zM781 280h1v240h-1zM356 281h2v2h-2zM359 281h1v1h-1zM371 281h1v7h-1zM409 281h2v4h-2zM430 281h1v8h-1zM442 281h1v5h-1zM458 281h1v5h-1zM488 281h1v3h-1zM540 281h1v1h-1zM544 281h4v2h-4zM566 281h6v14h-6zM260 282h1v14h-1zM286 282h1v14h-1zM355 282h1v3h-1zM369 282h2v30h-2zM411 282h1v5h-1zM443 282h1v5h-1zM459 282h1v5h-1zM489 282h2v2h-2zM519 282h2v3h-2zM543 282h1v1h-1zM548 282h3v2h-3zM565 282h1v13h-1zM572 282h2v12h-2zM17 283h1v234h-1zM315 283h1v5h-1zM353 283h2v2h-2zM356 283h1v1h-1zM368 283h1v31h-1zM379 283h1v6h-1zM412 283h1v14h-1zM415 283h1v1h-1zM431 283h1v6h-1zM444 283h1v4h-1zM460 283h1v5h-1zM491 283h1v3h-1zM546 283h2v1h-2zM551 283h3v2h-3zM564 283h1v10h-1zM574 283h1v10h-1zM782 283h1v234h-1zM352 284h1v2h-1zM366 284h2v31h-2zM375 284h1v1h-1zM378 284h1v6h-1zM413 284h2v13h-2zM432 284h1v6h-1zM445 284h1v4h-1zM461 284h1v4h-1zM490 284h1v1h-1zM492 284h1v3h-1zM521 284h1v7h-1zM550 284h1v1h-1zM554 284h4v2h-4zM563 284h1v9h-1zM575 284h1v8h-1zM285 285h1v12h-1zM314 285h1v6h-1zM350 285h2v2h-2zM353 285h1v1h-1zM365 285h1v31h-1zM377 285h1v6h-1zM410 285h1v1h-1zM415 285h1v14h-1zM424 285h1v19h-1zM433 285h1v6h-1zM446 285h2v3h-2zM462 285h1v4h-1zM493 285h1v3h-1zM520 285h1v3h-1zM553 285h1v1h-1zM558 285h3v2h-3zM562 285h1v7h-1zM16 286h1v228h-1zM261 286h1v11h-1zM284 286h1v11h-1zM348 286h2v2h-2zM363 286h2v31h-2zM372 286h1v1h-1zM376 286h1v5h-1zM408 286h1v8h-1zM416 286h1v13h-1zM434 286h1v5h-1zM448 286h1v4h-1zM463 286h2v4h-2zM494 286h2v3h-2zM556 286h2v1h-2zM561 286h1v6h-1zM783 286h1v228h-1zM313 287h1v6h-1zM347 287h1v3h-1zM350 287h1v1h-1zM361 287h2v32h-2zM374 287h2v6h-2zM382 287h1v17h-1zM409 287h1v7h-1zM425 287h1v18h-1zM435 287h1v5h-1zM449 287h1v3h-1zM465 287h1v5h-1zM496 287h1v3h-1zM522 287h1v8h-1zM559 287h2v1h-2zM262 288h1v10h-1zM283 288h1v10h-1zM345 288h2v2h-2zM348 288h1v1h-1zM360 288h1v33h-1zM372 288h2v7h-2zM410 288h1v7h-1zM426 288h1v17h-1zM436 288h1v5h-1zM447 288h1v1h-1zM450 288h3v3h-3zM466 288h1v5h-1zM497 288h1v3h-1zM560 288h1v4h-1zM263 289h1v9h-1zM282 289h1v9h-1zM344 289h1v3h-1zM358 289h2v33h-2zM371 289h1v10h-1zM381 289h1v15h-1zM411 289h1v7h-1zM427 289h1v17h-1zM437 289h1v4h-1zM453 289h1v4h-1zM467 289h1v4h-1zM498 289h1v3h-1zM15 290h1v220h-1zM264 290h1v9h-1zM281 290h1v9h-1zM312 290h1v6h-1zM342 290h2v2h-2zM345 290h1v1h-1zM357 290h1v34h-1zM380 290h1v15h-1zM428 290h1v16h-1zM454 290h2v3h-2zM464 290h1v1h-1zM468 290h1v4h-1zM499 290h2v3h-2zM559 290h1v2h-1zM784 290h1v220h-1zM265 291h1v8h-1zM279 291h2v8h-2zM341 291h1v3h-1zM355 291h2v34h-2zM379 291h1v15h-1zM403 291h1v1h-1zM429 291h1v16h-1zM438 291h1v2h-1zM452 291h1v1h-1zM456 291h1v4h-1zM469 291h1v4h-1zM501 291h1v3h-1zM523 291h1v11h-1zM555 291h4v1h-4zM266 292h2v8h-2zM277 292h2v8h-2zM291 292h1v3h-1zM311 292h1v6h-1zM339 292h2v2h-2zM342 292h1v1h-1zM354 292h1v11h-1zM430 292h1v16h-1zM457 292h1v3h-1zM470 292h1v4h-1zM502 292h1v3h-1zM551 292h7v1h-7zM14 293h1v214h-1zM254 293h1v4h-1zM268 293h9v7h-9zM292 293h1v3h-1zM338 293h1v3h-1zM352 293h2v8h-2zM374 293h1v1h-1zM377 293h2v1h-2zM455 293h1v1h-1zM458 293h2v3h-2zM471 293h2v4h-2zM503 293h2v3h-2zM547 293h8v1h-8zM785 293h1v214h-1zM293 294h1v3h-1zM336 294h2v2h-2zM339 294h1v1h-1zM351 294h1v8h-1zM375 294h2v1h-2zM378 294h1v12h-1zM431 294h1v14h-1zM460 294h1v4h-1zM473 294h1v4h-1zM505 294h1v3h-1zM524 294h1v9h-1zM544 294h8v1h-8zM572 294h1v1h-1zM253 295h1v4h-1zM294 295h1v3h-1zM310 295h1v6h-1zM335 295h1v3h-1zM349 295h2v7h-2zM372 295h1v1h-1zM374 295h2v1h-2zM377 295h1v12h-1zM432 295h1v5h-1zM461 295h1v3h-1zM474 295h1v4h-1zM506 295h1v3h-1zM540 295h8v1h-8zM566 295h5v1h-5zM252 296h1v5h-1zM295 296h1v3h-1zM333 296h2v3h-2zM336 296h1v1h-1zM348 296h1v9h-1zM376 296h1v12h-1zM433 296h1v4h-1zM459 296h1v1h-1zM462 296h2v3h-2zM475 296h1v4h-1zM504 296h1v1h-1zM507 296h2v3h-2zM537 296h8v1h-8zM567 296h4v2h-4zM13 297h1v206h-1zM296 297h1v3h-1zM309 297h1v7h-1zM332 297h1v3h-1zM347 297h1v9h-1zM372 297h1v1h-1zM375 297h1v12h-1zM414 297h1v1h-1zM434 297h1v4h-1zM464 297h1v3h-1zM472 297h1v1h-1zM476 297h1v4h-1zM509 297h1v4h-1zM525 297h1v8h-1zM533 297h8v1h-8zM786 297h1v206h-1zM251 298h1v5h-1zM297 298h1v3h-1zM331 298h1v3h-1zM345 298h2v9h-2zM374 298h1v11h-1zM435 298h1v4h-1zM465 298h2v3h-2zM477 298h1v4h-1zM510 298h2v4h-2zM530 298h8v1h-8zM567 298h3v3h-3zM279 299h1v1h-1zM298 299h1v3h-1zM308 299h1v16h-1zM329 299h2v2h-2zM344 299h1v16h-1zM373 299h1v11h-1zM436 299h1v3h-1zM463 299h1v1h-1zM467 299h1v4h-1zM478 299h2v4h-2zM508 299h1v1h-1zM512 299h1v4h-1zM526 299h8v1h-8zM250 300h1v5h-1zM269 300h9v1h-9zM299 300h1v3h-1zM328 300h1v3h-1zM342 300h2v16h-2zM372 300h1v11h-1zM387 300h1v1h-1zM437 300h1v3h-1zM468 300h2v3h-2zM480 300h1v4h-1zM513 300h3v4h-3zM522 300h1v3h-1zM526 300h6v1h-6zM12 301h1v198h-1zM220 301h3v8h-3zM272 301h5v1h-5zM300 301h1v3h-1zM327 301h1v3h-1zM329 301h1v1h-1zM341 301h1v16h-1zM371 301h1v11h-1zM420 301h1v1h-1zM432 301h1v8h-1zM438 301h1v3h-1zM466 301h1v1h-1zM470 301h1v4h-1zM481 301h1v4h-1zM516 301h6v2h-6zM526 301h3v1h-3zM568 301h2v14h-2zM787 301h1v198h-1zM219 302h1v6h-1zM223 302h1v6h-1zM249 302h1v4h-1zM273 302h3v5h-3zM301 302h1v4h-1zM307 302h1v14h-1zM325 302h2v2h-2zM340 302h1v10h-1zM349 302h1v1h-1zM384 302h1v1h-1zM433 302h1v8h-1zM471 302h2v4h-2zM482 302h1v4h-1zM526 302h2v5h-2zM218 303h1v4h-1zM224 303h1v3h-1zM302 303h1v4h-1zM324 303h1v3h-1zM338 303h2v10h-2zM434 303h2v7h-2zM439 303h1v1h-1zM469 303h1v1h-1zM473 303h1v4h-1zM483 303h1v4h-1zM516 303h5v1h-5zM248 304h1v4h-1zM303 304h2v10h-2zM306 304h1v12h-1zM323 304h1v3h-1zM325 304h1v1h-1zM337 304h1v4h-1zM352 304h1v1h-1zM354 304h1v5h-1zM436 304h1v8h-1zM474 304h2v4h-2zM484 304h1v4h-1zM514 304h5v1h-5zM11 305h1v190h-1zM247 305h1v5h-1zM305 305h1v11h-1zM322 305h1v3h-1zM336 305h1v4h-1zM350 305h2v1h-2zM353 305h1v5h-1zM476 305h1v5h-1zM485 305h2v4h-2zM515 305h3v1h-3zM528 305h1v7h-1zM788 305h1v190h-1zM320 306h2v3h-2zM335 306h1v4h-1zM349 306h2v1h-2zM352 306h1v5h-1zM437 306h1v7h-1zM477 306h1v5h-1zM487 306h1v5h-1zM246 307h1v5h-1zM273 307h2v9h-2zM319 307h1v5h-1zM333 307h2v4h-2zM345 307h1v2h-1zM348 307h1v1h-1zM351 307h1v4h-1zM478 307h2v5h-2zM488 307h1v5h-1zM527 307h1v2h-1zM309 308h1v7h-1zM332 308h1v5h-1zM350 308h1v4h-1zM438 308h1v6h-1zM475 308h1v1h-1zM480 308h1v6h-1zM489 308h1v5h-1zM529 308h1v6h-1zM10 309h1v182h-1zM245 309h1v5h-1zM310 309h1v5h-1zM318 309h1v4h-1zM320 309h1v1h-1zM331 309h1v5h-1zM337 309h1v6h-1zM349 309h1v3h-1zM439 309h1v6h-1zM473 309h1v3h-1zM481 309h2v5h-2zM486 309h1v1h-1zM490 309h1v5h-1zM789 309h1v182h-1zM311 310h1v3h-1zM317 310h1v4h-1zM330 310h1v5h-1zM336 310h1v6h-1zM345 310h4v2h-4zM354 310h1v17h-1zM435 310h1v1h-1zM440 310h1v5h-1zM474 310h1v3h-1zM483 310h1v6h-1zM491 310h1v5h-1zM530 310h1v7h-1zM244 311h1v5h-1zM302 311h1v2h-1zM316 311h1v4h-1zM329 311h1v5h-1zM333 311h1v1h-1zM353 311h1v17h-1zM441 311h1v5h-1zM475 311h1v3h-1zM484 311h1v6h-1zM492 311h1v5h-1zM315 312h1v5h-1zM328 312h1v5h-1zM335 312h1v4h-1zM345 312h3v1h-3zM352 312h1v6h-1zM369 312h1v1h-1zM442 312h1v5h-1zM476 312h1v3h-1zM479 312h1v1h-1zM485 312h1v6h-1zM493 312h1v5h-1zM9 313h1v174h-1zM243 313h1v5h-1zM272 313h1v18h-1zM327 313h1v5h-1zM334 313h1v4h-1zM338 313h1v1h-1zM345 313h1v1h-1zM351 313h1v6h-1zM443 313h1v5h-1zM477 313h1v4h-1zM486 313h2v6h-2zM494 313h1v5h-1zM531 313h1v7h-1zM790 313h1v174h-1zM304 314h1v1h-1zM314 314h1v4h-1zM326 314h1v5h-1zM333 314h1v4h-1zM340 314h1v4h-1zM349 314h2v6h-2zM444 314h1v5h-1zM478 314h1v4h-1zM482 314h1v1h-1zM488 314h1v7h-1zM495 314h1v5h-1zM242 315h1v4h-1zM313 315h1v5h-1zM325 315h1v5h-1zM339 315h1v4h-1zM348 315h1v7h-1zM366 315h1v1h-1zM445 315h1v5h-1zM479 315h1v4h-1zM489 315h1v8h-1zM496 315h1v5h-1zM569 315h1v12h-1zM241 316h1v5h-1zM273 316h1v9h-1zM324 316h1v6h-1zM332 316h1v2h-1zM342 316h1v1h-1zM347 316h1v7h-1zM446 316h2v5h-2zM480 316h1v4h-1zM490 316h1v8h-1zM497 316h1v5h-1zM532 316h1v6h-1zM568 316h1v15h-1zM312 317h1v4h-1zM323 317h1v6h-1zM331 317h1v2h-1zM338 317h1v2h-1zM346 317h1v7h-1zM363 317h1v1h-1zM448 317h1v6h-1zM481 317h1v4h-1zM491 317h1v8h-1zM498 317h1v5h-1zM513 317h4v9h-4zM8 318h1v164h-1zM240 318h1v5h-1zM311 318h1v4h-1zM345 318h1v3h-1zM449 318h1v6h-1zM482 318h1v4h-1zM492 318h1v8h-1zM499 318h1v5h-1zM512 318h1v8h-1zM517 318h1v9h-1zM791 318h1v164h-1zM310 319h1v5h-1zM322 319h1v5h-1zM330 319h1v1h-1zM344 319h1v3h-1zM361 319h1v1h-1zM450 319h1v6h-1zM487 319h1v1h-1zM493 319h1v8h-1zM500 319h1v5h-1zM511 319h1v6h-1zM518 319h1v8h-1zM533 319h1v6h-1zM239 320h1v5h-1zM321 320h1v5h-1zM343 320h1v3h-1zM349 320h1v1h-1zM352 320h1v9h-1zM451 320h1v5h-1zM483 320h1v3h-1zM494 320h1v9h-1zM510 320h1v4h-1zM309 321h1v4h-1zM320 321h1v6h-1zM342 321h1v3h-1zM351 321h1v9h-1zM447 321h1v1h-1zM452 321h1v5h-1zM484 321h1v3h-1zM495 321h1v10h-1zM501 321h1v5h-1zM238 322h1v6h-1zM271 322h1v15h-1zM308 322h1v5h-1zM319 322h1v6h-1zM350 322h1v9h-1zM358 322h1v1h-1zM453 322h1v5h-1zM485 322h1v3h-1zM496 322h1v11h-1zM502 322h1v5h-1zM519 322h1v5h-1zM534 322h1v6h-1zM7 323h1v154h-1zM318 323h1v6h-1zM341 323h1v1h-1zM345 323h1v1h-1zM349 323h1v9h-1zM454 323h2v5h-2zM486 323h1v3h-1zM497 323h1v26h-1zM503 323h1v5h-1zM520 323h1v5h-1zM792 323h1v154h-1zM237 324h1v7h-1zM307 324h1v4h-1zM348 324h1v9h-1zM456 324h1v6h-1zM473 324h2v1h-2zM498 324h1v261h-1zM504 324h1v6h-1zM535 324h1v8h-1zM236 325h1v28h-1zM306 325h1v5h-1zM317 325h1v5h-1zM347 325h1v9h-1zM355 325h1v1h-1zM457 325h1v6h-1zM474 325h2v1h-2zM487 325h1v2h-1zM505 325h1v6h-1zM521 325h2v3h-2zM624 325h11v3h-11zM316 326h1v6h-1zM346 326h1v9h-1zM458 326h1v6h-1zM475 326h3v2h-3zM488 326h1v2h-1zM499 326h1v108h-1zM506 326h1v6h-1zM523 326h1v3h-1zM567 326h1v8h-1zM235 327h1v23h-1zM305 327h1v4h-1zM315 327h1v6h-1zM345 327h1v9h-1zM459 327h1v6h-1zM478 327h1v5h-1zM489 327h1v2h-1zM500 327h1v85h-1zM507 327h1v7h-1zM524 327h1v3h-1zM536 327h1v10h-1zM6 328h1v144h-1zM234 328h1v9h-1zM304 328h1v5h-1zM344 328h1v9h-1zM455 328h1v1h-1zM460 328h1v6h-1zM476 328h2v1h-2zM479 328h1v5h-1zM482 328h1v2h-1zM490 328h1v2h-1zM501 328h1v72h-1zM508 328h1v7h-1zM522 328h1v1h-1zM525 328h2v2h-2zM625 328h10v1h-10zM793 328h1v144h-1zM233 329h1v6h-1zM270 329h1v17h-1zM314 329h1v5h-1zM343 329h1v9h-1zM461 329h1v6h-1zM477 329h1v1h-1zM480 329h1v5h-1zM483 329h1v8h-1zM502 329h1v67h-1zM527 329h2v2h-2zM625 329h4v1h-4zM632 329h3v7h-3zM232 330h1v4h-1zM303 330h1v4h-1zM313 330h1v6h-1zM342 330h1v10h-1zM462 330h2v6h-2zM468 330h3v12h-3zM481 330h1v5h-1zM484 330h1v8h-1zM491 330h1v1h-1zM509 330h1v7h-1zM526 330h1v1h-1zM529 330h2v2h-2zM537 330h1v8h-1zM566 330h1v7h-1zM625 330h3v6h-3zM230 331h2v3h-2zM302 331h1v5h-1zM312 331h1v6h-1zM464 331h1v7h-1zM471 331h2v14h-2zM482 331h1v5h-1zM485 331h1v8h-1zM492 331h1v1h-1zM503 331h1v64h-1zM510 331h1v7h-1zM528 331h1v1h-1zM531 331h1v3h-1zM628 331h1v5h-1zM227 332h3v2h-3zM341 332h1v9h-1zM465 332h1v7h-1zM473 332h1v2h-1zM486 332h1v28h-1zM493 332h1v1h-1zM504 332h1v63h-1zM511 332h1v8h-1zM530 332h1v1h-1zM532 332h2v2h-2zM629 332h3v4h-3zM5 333h1v134h-1zM226 333h1v10h-1zM278 333h2v1h-2zM301 333h1v4h-1zM311 333h1v6h-1zM340 333h1v9h-1zM466 333h2v7h-2zM474 333h2v2h-2zM487 333h1v28h-1zM505 333h1v62h-1zM512 333h1v8h-1zM534 333h2v2h-2zM538 333h1v8h-1zM227 334h2v1h-2zM277 334h2v2h-2zM300 334h1v5h-1zM310 334h1v6h-1zM319 334h1v1h-1zM339 334h1v3h-1zM476 334h2v3h-2zM488 334h1v28h-1zM513 334h1v8h-1zM533 334h1v1h-1zM565 334h1v15h-1zM794 334h1v132h-1zM227 335h1v9h-1zM269 335h1v13h-1zM276 335h1v3h-1zM309 335h1v17h-1zM317 335h2v2h-2zM338 335h1v3h-1zM473 335h1v12h-1zM475 335h1v1h-1zM478 335h1v3h-1zM489 335h1v14h-1zM506 335h1v31h-1zM514 335h1v8h-1zM535 335h1v1h-1zM539 335h1v9h-1zM225 336h1v4h-1zM275 336h1v3h-1zM277 336h1v1h-1zM299 336h1v4h-1zM316 336h1v4h-1zM337 336h1v9h-1zM463 336h1v1h-1zM474 336h1v12h-1zM479 336h2v3h-2zM490 336h1v6h-1zM507 336h1v7h-1zM540 336h2v3h-2zM274 337h1v4h-1zM298 337h1v5h-1zM308 337h1v16h-1zM315 337h1v4h-1zM317 337h1v2h-1zM323 337h3v1h-3zM336 337h1v10h-1zM475 337h1v12h-1zM477 337h1v1h-1zM481 337h1v4h-1zM491 337h1v6h-1zM508 337h1v7h-1zM515 337h1v208h-1zM542 337h3v2h-3zM564 337h1v11h-1zM273 338h1v4h-1zM307 338h1v17h-1zM314 338h1v37h-1zM322 338h3v2h-3zM335 338h1v10h-1zM339 338h1v5h-1zM482 338h1v4h-1zM492 338h2v6h-2zM509 338h1v7h-1zM516 338h1v51h-1zM545 338h3v2h-3zM297 339h1v5h-1zM313 339h1v37h-1zM320 339h2v6h-2zM338 339h1v5h-1zM476 339h1v11h-1zM480 339h1v1h-1zM483 339h1v18h-1zM494 339h1v7h-1zM517 339h1v34h-1zM540 339h1v8h-1zM543 339h2v1h-2zM548 339h3v2h-3zM567 339h7v10h-7zM4 340h1v120h-1zM228 340h1v4h-1zM234 340h1v7h-1zM268 340h1v11h-1zM272 340h1v3h-1zM306 340h1v16h-1zM312 340h1v92h-1zM319 340h1v8h-1zM322 340h2v1h-2zM334 340h1v9h-1zM467 340h1v1h-1zM477 340h1v11h-1zM484 340h2v18h-2zM495 340h2v7h-2zM510 340h1v6h-1zM518 340h1v18h-1zM546 340h2v1h-2zM551 340h3v2h-3zM566 340h1v9h-1zM574 340h1v8h-1zM795 340h1v120h-1zM229 341h1v3h-1zM232 341h2v5h-2zM271 341h1v3h-1zM296 341h1v4h-1zM305 341h1v16h-1zM311 341h1v105h-1zM317 341h2v9h-2zM322 341h1v2h-1zM333 341h1v9h-1zM478 341h2v11h-2zM511 341h1v30h-1zM519 341h1v13h-1zM549 341h2v1h-2zM554 341h3v2h-3zM563 341h1v7h-1zM230 342h2v3h-2zM295 342h1v5h-1zM304 342h1v17h-1zM310 342h1v117h-1zM315 342h2v30h-2zM332 342h1v9h-1zM469 342h2v1h-2zM480 342h1v12h-1zM512 342h1v17h-1zM541 342h1v7h-1zM552 342h2v1h-2zM557 342h3v2h-3zM575 342h1v5h-1zM331 343h1v10h-1zM470 343h1v1h-1zM481 343h2v12h-2zM490 343h1v7h-1zM513 343h1v14h-1zM520 343h1v11h-1zM556 343h1v1h-1zM560 343h3v2h-3zM267 344h1v11h-1zM294 344h1v5h-1zM303 344h1v16h-1zM491 344h1v21h-1zM493 344h1v1h-1zM507 344h1v37h-1zM514 344h1v256h-1zM521 344h1v18h-1zM559 344h1v1h-1zM266 345h1v14h-1zM302 345h1v61h-1zM320 345h1v1h-1zM330 345h1v9h-1zM472 345h1v1h-1zM492 345h1v3h-1zM508 345h1v28h-1zM522 345h1v176h-1zM542 345h1v7h-1zM562 345h1v5h-1zM237 346h1v10h-1zM293 346h1v4h-1zM301 346h1v68h-1zM329 346h1v9h-1zM493 346h1v3h-1zM509 346h1v20h-1zM3 347h1v106h-1zM265 347h1v4h-1zM292 347h1v5h-1zM328 347h1v10h-1zM494 347h1v3h-1zM496 347h1v1h-1zM510 347h1v20h-1zM523 347h1v183h-1zM796 347h1v106h-1zM264 348h1v4h-1zM300 348h1v78h-1zM321 348h2v2h-2zM495 348h1v4h-1zM543 348h1v7h-1zM561 348h1v5h-1zM263 349h1v4h-1zM291 349h1v5h-1zM299 349h1v91h-1zM327 349h1v9h-1zM492 349h1v18h-1zM496 349h1v235h-1zM524 349h1v71h-1zM567 349h6v1h-6zM262 350h1v4h-1zM290 350h1v6h-1zM317 350h1v2h-1zM320 350h2v16h-2zM326 350h1v9h-1zM493 350h1v79h-1zM497 350h1v235h-1zM560 350h1v6h-1zM183 351h5v3h-5zM238 351h1v8h-1zM261 351h1v4h-1zM298 351h1v103h-1zM319 351h1v17h-1zM325 351h1v9h-1zM489 351h1v12h-1zM525 351h1v25h-1zM544 351h1v7h-1zM182 352h1v3h-1zM188 352h2v3h-2zM260 352h1v4h-1zM289 352h1v6h-1zM297 352h1v117h-1zM324 352h1v10h-1zM479 352h1v1h-1zM490 352h1v12h-1zM494 352h1v154h-1zM559 352h1v6h-1zM582 352h5v8h-5zM180 353h2v3h-2zM190 353h1v9h-1zM259 353h1v4h-1zM265 353h1v11h-1zM296 353h1v128h-1zM318 353h1v17h-1zM323 353h1v10h-1zM495 353h1v231h-1zM580 353h2v6h-2zM587 353h1v6h-1zM179 354h1v8h-1zM239 354h1v8h-1zM288 354h1v58h-1zM309 354h1v207h-1zM322 354h1v10h-1zM545 354h1v6h-1zM588 354h1v3h-1zM2 355h1v90h-1zM189 355h1v8h-1zM191 355h1v6h-1zM258 355h1v3h-1zM287 355h1v39h-1zM295 355h1v131h-1zM308 355h1v222h-1zM317 355h1v16h-1zM482 355h1v1h-1zM558 355h1v5h-1zM579 355h1v2h-1zM797 355h1v90h-1zM178 356h1v4h-1zM180 356h1v7h-1zM257 356h1v3h-1zM294 356h1v83h-1zM526 356h1v4h-1zM256 357h1v3h-1zM286 357h1v35h-1zM293 357h1v99h-1zM307 357h1v179h-1zM546 357h1v6h-1zM557 357h1v6h-1zM240 358h1v7h-1zM255 358h1v3h-1zM264 358h1v10h-1zM285 358h1v45h-1zM292 358h1v117h-1zM306 358h1v162h-1zM485 358h1v1h-1zM254 359h1v3h-1zM291 359h1v18h-1zM305 359h1v38h-1zM547 359h1v7h-1zM581 359h1v1h-1zM181 360h1v4h-1zM253 360h1v3h-1zM284 360h1v78h-1zM290 360h1v118h-1zM556 360h1v5h-1zM582 360h4v4h-4zM182 361h1v4h-1zM188 361h1v3h-1zM241 361h1v8h-1zM252 361h1v3h-1zM283 361h1v110h-1zM289 361h1v119h-1zM304 361h1v34h-1zM512 361h2v55h-2zM183 362h5v3h-5zM251 362h1v3h-1zM303 362h1v39h-1zM548 362h1v7h-1zM555 362h1v6h-1zM250 363h1v3h-1zM263 363h1v10h-1zM282 363h1v143h-1zM242 364h1v11h-1zM249 364h1v3h-1zM281 364h1v28h-1zM554 364h1v6h-1zM582 364h3v5h-3zM1 365h1v70h-1zM248 365h1v3h-1zM549 365h1v6h-1zM798 365h1v70h-1zM247 366h1v3h-1zM320 366h1v1h-1zM243 367h1v8h-1zM246 367h1v3h-1zM550 367h1v12h-1zM553 367h1v5h-1zM245 368h1v3h-1zM262 368h1v10h-1zM506 368h1v21h-1zM244 369h1v10h-1zM552 369h1v12h-1zM582 369h2v8h-2zM551 370h1v8h-1zM241 372h1v4h-1zM261 372h1v11h-1zM315 372h1v2h-1zM240 373h1v4h-1zM239 374h1v4h-1zM245 374h1v8h-1zM549 374h1v7h-1zM238 375h1v4h-1zM581 375h1v33h-1zM237 376h1v4h-1zM553 376h1v7h-1zM236 377h1v4h-1zM260 377h1v14h-1zM548 377h1v6h-1zM582 377h1v9h-1zM235 378h1v4h-1zM246 378h1v7h-1zM234 379h1v4h-1zM291 379h1v98h-1zM547 379h1v6h-1zM554 379h1v7h-1zM0 380h1v40h-1zM233 380h1v4h-1zM799 380h1v40h-1zM247 381h1v8h-1zM259 381h1v10h-1zM546 381h1v6h-1zM232 382h1v3h-1zM555 382h1v7h-1zM231 383h1v3h-1zM545 383h1v6h-1zM230 384h1v3h-1zM229 385h1v3h-1zM248 385h1v8h-1zM544 385h1v6h-1zM556 385h1v7h-1zM580 385h1v23h-1zM228 386h1v3h-1zM258 386h1v4h-1zM227 387h1v3h-1zM261 387h2v5h-2zM226 388h1v3h-1zM263 388h1v5h-1zM543 388h1v5h-1zM557 388h1v7h-1zM225 389h1v3h-1zM249 389h1v8h-1zM264 389h2v4h-2zM224 390h1v3h-1zM266 390h1v4h-1zM542 390h1v5h-1zM155 391h5v3h-5zM223 391h1v4h-1zM267 391h1v4h-1zM558 391h1v7h-1zM154 392h1v1h-1zM222 392h1v4h-1zM250 392h1v9h-1zM268 392h2v3h-2zM541 392h1v5h-1zM221 393h1v4h-1zM265 393h1v1h-1zM270 393h1v3h-1zM579 393h1v15h-1zM155 394h4v1h-4zM220 394h1v4h-1zM271 394h1v3h-1zM540 394h1v5h-1zM559 394h1v7h-1zM156 395h3v1h-3zM269 395h1v1h-1zM272 395h1v2h-1zM578 395h1v14h-1zM582 395h1v12h-1zM219 396h1v3h-1zM251 396h1v9h-1zM539 396h1v5h-1zM577 396h1v13h-1zM218 397h1v3h-1zM560 397h1v7h-1zM576 397h1v13h-1zM583 397h1v9h-1zM217 398h1v3h-1zM538 398h1v5h-1zM584 398h1v7h-1zM216 399h1v3h-1zM575 399h1v12h-1zM215 400h1v3h-1zM252 400h1v9h-1zM537 400h1v6h-1zM561 400h1v7h-1zM585 400h1v4h-1zM214 401h1v3h-1zM638 401h3v7h-3zM213 402h1v3h-1zM536 402h1v6h-1zM637 402h1v5h-1zM641 402h1v5h-1zM212 403h1v3h-1zM562 403h1v7h-1zM636 403h1v2h-1zM642 403h1v3h-1zM211 404h1v3h-1zM253 404h1v9h-1zM535 404h1v6h-1zM210 405h1v3h-1zM209 406h1v4h-1zM534 406h1v6h-1zM563 406h1v7h-1zM208 407h1v4h-1zM574 407h1v5h-1zM776 407h1v128h-1zM23 408h1v127h-1zM207 408h1v4h-1zM254 408h1v10h-1zM533 408h1v7h-1zM532 409h1v8h-1zM564 409h1v7h-1zM573 409h1v4h-1zM206 410h1v3h-1zM572 410h1v4h-1zM205 411h1v3h-1zM531 411h1v14h-1zM571 411h1v4h-1zM204 412h1v4h-1zM255 412h1v10h-1zM565 412h1v9h-1zM570 412h1v4h-1zM203 413h1v4h-1zM530 413h1v9h-1zM569 413h1v5h-1zM202 414h1v4h-1zM529 414h1v5h-1zM566 414h1v9h-1zM568 414h1v5h-1zM201 415h1v5h-1zM567 415h1v10h-1zM200 416h1v6h-1zM256 416h1v10h-1zM513 416h1v184h-1zM198 417h2v8h-2zM193 418h1v3h-1zM195 418h3v4h-3zM189 419h4v2h-4zM194 419h1v2h-1zM564 419h1v3h-1zM188 420h1v10h-1zM257 420h1v14h-1zM532 420h1v7h-1zM563 420h1v3h-1zM187 421h1v8h-1zM189 421h2v1h-2zM562 421h1v3h-1zM189 422h1v2h-1zM196 422h2v2h-2zM561 422h1v3h-1zM568 422h1v6h-1zM186 423h1v4h-1zM533 423h1v6h-1zM560 423h1v3h-1zM197 424h1v7h-1zM258 424h1v7h-1zM521 424h1v87h-1zM559 424h1v3h-1zM198 425h1v7h-1zM534 425h1v7h-1zM558 425h1v3h-1zM569 425h1v6h-1zM196 426h1v5h-1zM557 426h1v3h-1zM598 426h6v11h-6zM189 427h1v4h-1zM195 427h1v4h-1zM305 427h1v169h-1zM556 427h1v3h-1zM597 427h1v11h-1zM604 427h1v9h-1zM190 428h5v4h-5zM199 428h1v5h-1zM256 428h1v9h-1zM535 428h1v6h-1zM555 428h1v3h-1zM570 428h1v6h-1zM596 428h1v11h-1zM605 428h1v7h-1zM24 429h1v109h-1zM554 429h1v3h-1zM775 429h1v109h-1zM553 430h1v3h-1zM595 430h1v10h-1zM606 430h1v4h-1zM200 431h1v3h-1zM536 431h1v5h-1zM552 431h1v3h-1zM571 431h1v6h-1zM201 432h1v3h-1zM255 432h1v9h-1zM551 432h1v3h-1zM202 433h1v4h-1zM537 433h1v6h-1zM550 433h1v3h-1zM549 434h1v3h-1zM572 434h1v6h-1zM203 435h1v3h-1zM254 435h1v9h-1zM538 435h1v6h-1zM548 435h1v3h-1zM594 435h1v6h-1zM204 436h1v3h-1zM547 436h1v3h-1zM205 437h1v4h-1zM546 437h1v3h-1zM573 437h1v6h-1zM593 437h1v5h-1zM598 437h1v1h-1zM539 438h1v5h-1zM545 438h1v3h-1zM592 438h1v5h-1zM206 439h1v3h-1zM253 439h1v8h-1zM544 439h1v3h-1zM25 440h1v101h-1zM207 440h1v3h-1zM540 440h1v9h-1zM543 440h1v3h-1zM574 440h1v6h-1zM591 440h1v4h-1zM774 440h1v101h-1zM208 441h1v4h-1zM542 441h1v3h-1zM590 441h1v4h-1zM146 442h1v4h-1zM252 442h1v8h-1zM541 442h1v9h-1zM589 442h1v4h-1zM145 443h1v7h-1zM147 443h3v2h-3zM209 443h1v3h-1zM288 443h1v42h-1zM575 443h1v6h-1zM144 444h1v5h-1zM150 444h1v5h-1zM210 444h1v4h-1zM539 444h1v4h-1zM588 444h1v4h-1zM149 445h1v5h-1zM538 445h1v3h-1zM587 445h1v4h-1zM143 446h1v2h-1zM211 446h1v3h-1zM251 446h1v8h-1zM536 446h2v3h-2zM542 446h1v7h-1zM576 446h1v6h-1zM586 446h1v4h-1zM212 447h1v4h-1zM535 447h1v3h-1zM585 447h1v4h-1zM26 448h1v95h-1zM146 448h1v3h-1zM148 448h1v3h-1zM213 448h1v4h-1zM510 448h1v55h-1zM534 448h1v3h-1zM773 448h1v95h-1zM147 449h1v2h-1zM250 449h1v8h-1zM533 449h1v3h-1zM536 449h1v1h-1zM543 449h1v7h-1zM577 449h1v6h-1zM584 449h1v4h-1zM214 450h1v4h-1zM511 450h1v93h-1zM532 450h1v3h-1zM583 450h1v4h-1zM501 451h1v30h-1zM531 451h1v3h-1zM582 451h1v4h-1zM215 452h1v3h-1zM249 452h1v8h-1zM281 452h1v154h-1zM502 452h1v44h-1zM529 452h2v3h-2zM544 452h1v7h-1zM578 452h1v11h-1zM581 452h1v5h-1zM216 453h1v4h-1zM528 453h1v3h-1zM580 453h1v5h-1zM512 454h1v145h-1zM527 454h1v3h-1zM579 454h1v11h-1zM27 455h1v91h-1zM217 455h1v4h-1zM304 455h1v141h-1zM500 455h1v19h-1zM526 455h1v2h-1zM545 455h1v7h-1zM772 455h1v91h-1zM218 456h1v4h-1zM248 456h1v7h-1zM577 456h1v8h-1zM520 457h1v44h-1zM219 458h1v4h-1zM503 458h1v52h-1zM546 458h1v7h-1zM247 459h1v8h-1zM576 459h1v6h-1zM220 460h1v4h-1zM499 460h1v125h-1zM580 460h1v14h-1zM221 461h1v5h-1zM547 461h1v7h-1zM575 461h1v5h-1zM28 462h1v86h-1zM246 462h1v8h-1zM771 462h1v86h-1zM222 463h1v4h-1zM574 463h1v4h-1zM581 463h1v12h-1zM213 464h4v5h-4zM287 464h1v143h-1zM573 464h1v5h-1zM212 465h1v7h-1zM223 465h1v4h-1zM245 465h1v8h-1zM548 465h1v7h-1zM211 466h1v5h-1zM572 466h1v4h-1zM582 466h1v9h-1zM29 467h1v84h-1zM224 467h1v4h-1zM586 467h3v18h-3zM770 467h1v84h-1zM225 468h1v5h-1zM549 468h1v8h-1zM571 468h1v4h-1zM584 468h2v7h-2zM589 468h1v8h-1zM213 469h3v4h-3zM244 469h1v8h-1zM286 469h1v138h-1zM570 469h1v4h-1zM583 469h1v6h-1zM226 470h1v5h-1zM569 471h1v4h-1zM227 472h1v6h-1zM243 472h1v8h-1zM550 472h1v40h-1zM568 472h1v4h-1zM30 473h1v80h-1zM214 473h3v2h-3zM769 473h1v80h-1zM228 474h1v6h-1zM294 474h1v12h-1zM567 474h1v4h-1zM215 475h3v1h-3zM242 475h1v8h-1zM504 475h1v40h-1zM216 476h3v1h-3zM229 476h1v6h-1zM516 476h1v36h-1zM566 476h1v4h-1zM217 477h3v2h-3zM551 477h1v32h-1zM565 477h1v4h-1zM31 478h1v78h-1zM230 478h1v7h-1zM241 478h1v9h-1zM768 478h1v78h-1zM218 479h3v1h-3zM564 479h1v4h-1zM219 480h3v1h-3zM285 480h1v127h-1zM303 480h1v112h-1zM563 480h1v5h-1zM220 481h2v2h-2zM231 481h1v7h-1zM240 481h1v9h-1zM32 482h1v76h-1zM222 482h1v3h-1zM552 482h1v25h-1zM562 482h1v5h-1zM585 482h1v67h-1zM767 482h1v76h-1zM221 483h1v1h-1zM223 483h1v4h-1zM232 483h1v8h-1zM224 484h1v4h-1zM239 484h1v10h-1zM280 484h1v122h-1zM561 484h1v5h-1zM586 485h2v17h-2zM225 486h1v3h-1zM233 486h1v19h-1zM560 486h1v4h-1zM33 487h1v73h-1zM226 487h1v4h-1zM238 487h1v10h-1zM559 487h1v5h-1zM766 487h1v73h-1zM227 488h1v4h-1zM234 489h1v24h-1zM558 489h1v5h-1zM228 490h1v4h-1zM237 490h1v17h-1zM553 490h1v15h-1zM584 490h1v69h-1zM34 491h1v72h-1zM229 491h1v4h-1zM557 491h1v5h-1zM765 491h1v72h-1zM230 492h1v4h-1zM236 492h1v14h-1zM517 492h1v110h-1zM235 493h1v16h-1zM556 493h1v5h-1zM231 494h1v4h-1zM505 494h1v20h-1zM35 495h1v70h-1zM232 495h1v4h-1zM555 495h1v5h-1zM764 495h1v70h-1zM554 496h1v7h-1zM171 497h5v5h-5zM284 497h1v110h-1zM170 498h1v12h-1zM176 498h2v11h-2zM36 499h1v68h-1zM169 499h1v10h-1zM178 499h1v9h-1zM583 499h1v29h-1zM763 499h1v68h-1zM168 500h1v8h-1zM179 500h1v7h-1zM232 500h1v7h-1zM37 502h1v67h-1zM167 502h1v5h-1zM171 502h2v1h-2zM175 502h1v8h-1zM238 502h1v6h-1zM586 502h1v24h-1zM762 502h1v67h-1zM171 503h1v7h-1zM180 503h1v1h-1zM231 503h1v7h-1zM239 504h1v5h-1zM172 505h3v5h-3zM302 505h1v88h-1zM506 505h1v3h-1zM518 505h1v97h-1zM38 506h1v65h-1zM230 506h1v8h-1zM240 506h1v4h-1zM549 506h1v8h-1zM761 506h1v65h-1zM233 508h1v9h-1zM241 508h1v4h-1zM582 508h1v22h-1zM39 509h1v64h-1zM176 509h1v1h-1zM229 509h1v8h-1zM242 509h1v4h-1zM524 509h1v32h-1zM760 509h1v64h-1zM173 510h2v1h-2zM279 510h1v96h-1zM548 510h1v7h-1zM243 511h1v3h-1zM40 512h1v63h-1zM232 512h1v9h-1zM244 512h1v4h-1zM759 512h1v63h-1zM228 513h1v24h-1zM547 513h1v6h-1zM245 514h1v4h-1zM500 514h1v72h-1zM41 515h1v63h-1zM231 515h1v10h-1zM246 515h1v4h-1zM516 515h1v29h-1zM758 515h1v63h-1zM227 516h1v26h-1zM546 516h1v6h-1zM247 517h1v4h-1zM581 517h1v22h-1zM649 517h4v3h-4zM42 518h1v61h-1zM230 518h1v11h-1zM248 518h1v4h-1zM545 518h1v7h-1zM647 518h2v9h-2zM653 518h1v3h-1zM757 518h1v61h-1zM226 519h1v29h-1zM654 519h1v9h-1zM249 520h1v4h-1zM283 520h1v87h-1zM646 520h1v6h-1zM655 520h1v7h-1zM229 521h1v12h-1zM544 521h1v7h-1zM756 521h1v60h-1zM43 522h1v59h-1zM250 522h1v3h-1zM656 522h1v3h-1zM225 523h1v9h-1zM251 523h1v4h-1zM44 524h1v59h-1zM525 524h1v79h-1zM543 524h1v8h-1zM755 524h1v59h-1zM252 525h1v4h-1zM288 525h1v81h-1zM649 525h1v4h-1zM653 525h1v3h-1zM224 526h1v9h-1zM253 526h1v4h-1zM519 526h1v77h-1zM580 526h1v22h-1zM650 526h3v3h-3zM45 527h1v58h-1zM296 527h1v9h-1zM542 527h1v17h-1zM648 527h1v1h-1zM754 527h1v58h-1zM254 528h1v4h-1zM293 529h1v29h-1zM541 529h1v13h-1zM46 530h1v57h-1zM223 530h1v9h-1zM255 530h1v4h-1zM301 530h1v63h-1zM753 530h1v57h-1zM292 531h1v75h-1zM256 532h1v4h-1zM295 532h1v13h-1zM526 532h1v71h-1zM540 532h1v7h-1zM47 533h1v56h-1zM222 533h1v10h-1zM257 533h1v5h-1zM752 533h1v56h-1zM175 534h2v1h-2zM294 534h1v18h-1zM616 534h4v7h-4zM48 535h1v56h-1zM176 535h2v2h-2zM258 535h1v5h-1zM539 535h1v2h-1zM615 535h1v8h-1zM620 535h1v5h-1zM751 535h1v56h-1zM178 536h1v3h-1zM225 536h1v18h-1zM278 536h1v70h-1zM579 536h1v20h-1zM614 536h1v8h-1zM177 537h1v1h-1zM221 537h1v15h-1zM259 537h1v5h-1zM291 537h1v69h-1zM49 538h1v55h-1zM179 538h1v2h-1zM282 538h1v69h-1zM750 538h1v55h-1zM180 539h1v3h-1zM260 539h1v5h-1zM50 540h1v55h-1zM181 540h1v3h-1zM527 540h1v63h-1zM613 540h1v5h-1zM749 540h1v55h-1zM182 541h1v3h-1zM220 541h1v65h-1zM261 541h1v6h-1zM306 541h1v55h-1zM543 541h1v6h-1zM612 541h1v5h-1zM616 541h1v1h-1zM183 542h1v3h-1zM224 542h1v20h-1zM501 542h1v50h-1zM505 542h1v50h-1zM51 543h1v53h-1zM184 543h1v3h-1zM611 543h1v4h-1zM748 543h1v53h-1zM185 544h1v4h-1zM262 544h1v5h-1zM544 544h1v5h-1zM610 544h1v4h-1zM52 545h1v53h-1zM219 545h1v58h-1zM504 545h1v47h-1zM506 545h1v48h-1zM578 545h1v19h-1zM747 545h1v53h-1zM186 546h1v3h-1zM263 546h1v6h-1zM545 546h1v5h-1zM609 546h1v3h-1zM187 547h1v3h-1zM608 547h1v3h-1zM53 548h1v52h-1zM188 548h1v3h-1zM264 548h1v7h-1zM546 548h1v6h-1zM583 548h1v17h-1zM607 548h1v3h-1zM746 548h1v52h-1zM189 549h1v3h-1zM223 549h1v54h-1zM528 549h1v52h-1zM606 549h1v3h-1zM54 550h1v52h-1zM190 550h1v4h-1zM605 550h1v3h-1zM745 550h1v52h-1zM265 551h1v6h-1zM547 551h1v5h-1zM604 551h1v4h-1zM55 552h1v51h-1zM191 552h1v3h-1zM603 552h1v4h-1zM744 552h1v51h-1zM192 553h1v3h-1zM300 553h1v44h-1zM502 553h1v39h-1zM548 553h1v6h-1zM577 553h1v19h-1zM602 553h1v4h-1zM56 554h1v51h-1zM193 554h1v3h-1zM266 554h1v6h-1zM503 554h1v38h-1zM743 554h1v51h-1zM194 555h1v4h-1zM549 555h1v6h-1zM601 555h1v3h-1zM222 556h1v51h-1zM267 556h1v7h-1zM290 556h1v50h-1zM600 556h1v3h-1zM57 557h1v50h-1zM195 557h1v3h-1zM307 557h1v38h-1zM507 557h1v36h-1zM550 557h1v6h-1zM582 557h1v13h-1zM599 557h1v3h-1zM742 557h1v50h-1zM196 558h1v3h-1zM598 558h1v3h-1zM58 559h1v49h-1zM197 559h1v4h-1zM268 559h1v7h-1zM511 559h1v40h-1zM597 559h1v4h-1zM741 559h1v49h-1zM198 560h1v4h-1zM221 560h1v47h-1zM289 560h1v46h-1zM516 560h1v41h-1zM551 560h1v5h-1zM59 561h1v49h-1zM277 561h1v44h-1zM520 561h1v42h-1zM596 561h1v3h-1zM740 561h1v49h-1zM199 562h1v4h-1zM269 562h1v7h-1zM299 562h1v35h-1zM515 562h1v39h-1zM552 562h1v5h-1zM576 562h1v40h-1zM581 562h1v11h-1zM595 562h1v3h-1zM60 563h1v49h-1zM200 563h1v4h-1zM293 563h1v13h-1zM594 563h1v3h-1zM739 563h1v49h-1zM201 564h1v5h-1zM298 564h1v34h-1zM510 564h1v35h-1zM553 564h1v6h-1zM593 564h1v4h-1zM61 565h1v48h-1zM270 565h1v8h-1zM294 565h4v5h-4zM529 565h1v25h-1zM592 565h1v4h-1zM738 565h1v48h-1zM202 566h1v4h-1zM62 567h1v48h-1zM203 567h1v5h-1zM509 567h1v32h-1zM554 567h1v5h-1zM580 567h1v10h-1zM591 567h1v3h-1zM737 567h1v48h-1zM590 568h1v3h-1zM63 569h1v47h-1zM204 569h1v5h-1zM271 569h1v7h-1zM555 569h1v5h-1zM589 569h1v3h-1zM736 569h1v47h-1zM205 570h1v5h-1zM295 570h3v28h-3zM575 570h1v34h-1zM588 570h1v4h-1zM64 571h1v47h-1zM508 571h1v23h-1zM556 571h1v6h-1zM579 571h1v18h-1zM735 571h1v47h-1zM206 572h1v5h-1zM272 572h1v9h-1zM587 572h1v3h-1zM65 573h1v46h-1zM557 573h1v6h-1zM586 573h1v4h-1zM734 573h1v46h-1zM207 574h1v5h-1zM578 574h1v17h-1zM585 574h1v4h-1zM66 575h1v46h-1zM273 575h1v12h-1zM584 575h1v5h-1zM733 575h1v46h-1zM208 576h1v5h-1zM558 576h1v5h-1zM67 577h1v45h-1zM209 577h1v6h-1zM583 577h1v4h-1zM732 577h1v45h-1zM274 578h1v9h-1zM559 578h1v6h-1zM574 578h1v26h-1zM577 578h1v19h-1zM582 578h1v5h-1zM68 579h1v45h-1zM210 579h1v6h-1zM294 579h1v22h-1zM387 579h17v4h-17zM464 579h31v3h-31zM581 579h1v6h-1zM731 579h1v45h-1zM308 580h20v5h-20zM368 580h19v3h-19zM404 580h60v3h-60zM580 580h1v7h-1zM69 581h1v44h-1zM211 581h1v5h-1zM213 581h2v1h-2zM275 581h1v24h-1zM328 581h40v3h-40zM524 581h1v23h-1zM560 581h1v5h-1zM730 581h1v44h-1zM70 582h1v45h-1zM214 582h2v3h-2zM276 582h1v23h-1zM293 582h1v20h-1zM464 582h25v1h-25zM492 582h3v2h-3zM729 582h1v45h-1zM212 583h1v5h-1zM216 583h1v5h-1zM272 583h1v4h-1zM368 583h12v1h-12zM468 583h19v1h-19zM490 583h2v1h-2zM561 583h1v6h-1zM71 584h1v44h-1zM271 584h1v3h-1zM328 584h24v1h-24zM474 584h11v1h-11zM728 584h1v44h-1zM213 585h1v5h-1zM215 585h1v1h-1zM217 585h1v4h-1zM269 585h2v3h-2zM308 585h15v1h-15zM325 585h22v1h-22zM562 585h1v7h-1zM573 585h1v13h-1zM72 586h1v44h-1zM218 586h1v16h-1zM267 586h2v3h-2zM308 586h6v1h-6zM315 586h8v2h-8zM326 586h23v1h-23zM727 586h1v44h-1zM214 587h1v9h-1zM266 587h1v3h-1zM308 587h4v1h-4zM314 587h1v8h-1zM323 587h1v4h-1zM327 587h21v1h-21zM371 587h9v2h-9zM476 587h10v2h-10zM73 588h1v43h-1zM215 588h1v13h-1zM264 588h2v2h-2zM308 588h2v1h-2zM312 588h2v4h-2zM315 588h2v1h-2zM322 588h1v3h-1zM324 588h2v3h-2zM327 588h17v1h-17zM403 588h7v2h-7zM413 588h8v2h-8zM486 588h15v3h-15zM521 588h1v15h-1zM563 588h1v7h-1zM726 588h1v43h-1zM74 589h1v44h-1zM198 589h5v3h-5zM262 589h2v2h-2zM308 589h1v6h-1zM310 589h2v3h-2zM315 589h1v6h-1zM318 589h4v6h-4zM326 589h9v1h-9zM388 589h5v2h-5zM412 589h1v1h-1zM477 589h9v1h-9zM586 589h13v2h-13zM725 589h1v44h-1zM191 590h7v2h-7zM203 590h5v2h-5zM216 590h1v12h-1zM260 590h2v2h-2zM264 590h1v1h-1zM309 590h1v5h-1zM316 590h2v5h-2zM387 590h1v1h-1zM393 590h1v1h-1zM480 590h6v1h-6zM584 590h2v2h-2zM599 590h3v2h-3zM75 591h1v43h-1zM188 591h3v2h-3zM208 591h3v2h-3zM217 591h1v11h-1zM224 591h1v8h-1zM259 591h1v2h-1zM262 591h1v1h-1zM389 591h3v1h-3zM487 591h14v1h-14zM523 591h1v13h-1zM564 591h1v7h-1zM582 591h2v2h-2zM586 591h2v1h-2zM597 591h2v1h-2zM602 591h2v3h-2zM724 591h1v43h-1zM185 592h3v1h-3zM191 592h2v1h-2zM204 592h4v1h-4zM211 592h3v2h-3zM257 592h2v2h-2zM260 592h1v1h-1zM313 592h1v3h-1zM322 592h12v2h-12zM537 592h4v1h-4zM572 592h1v5h-1zM579 592h3v2h-3zM584 592h1v1h-1zM600 592h2v1h-2zM604 592h1v3h-1zM76 593h1v42h-1zM182 593h5v1h-5zM210 593h1v1h-1zM254 593h3v1h-3zM303 593h1v3h-1zM310 593h3v2h-3zM334 593h1v1h-1zM538 593h4v1h-4zM565 593h1v8h-1zM578 593h1v3h-1zM582 593h1v1h-1zM605 593h2v2h-2zM723 593h1v42h-1zM77 594h1v43h-1zM179 594h6v1h-6zM213 594h1v1h-1zM249 594h7v1h-7zM301 594h2v2h-2zM539 594h5v1h-5zM579 594h2v1h-2zM607 594h3v2h-3zM722 594h1v43h-1zM177 595h5v1h-5zM237 595h16v1h-16zM271 595h4v7h-4zM495 595h8v3h-8zM507 595h2v3h-2zM522 595h1v8h-1zM542 595h4v1h-4zM606 595h1v1h-1zM610 595h2v3h-2zM78 596h1v42h-1zM174 596h6v1h-6zM232 596h18v1h-18zM265 596h6v7h-6zM493 596h2v1h-2zM503 596h4v2h-4zM544 596h5v1h-5zM566 596h1v7h-1zM608 596h2v1h-2zM612 596h3v2h-3zM721 596h1v42h-1zM172 597h6v1h-6zM232 597h13v1h-13zM258 597h7v7h-7zM545 597h9v1h-9zM615 597h3v2h-3zM79 598h1v41h-1zM169 598h6v1h-6zM253 598h5v6h-5zM295 598h2v1h-2zM547 598h7v1h-7zM613 598h2v1h-2zM618 598h4v2h-4zM720 598h1v41h-1zM80 599h1v42h-1zM166 599h7v1h-7zM250 599h3v5h-3zM295 599h1v1h-1zM567 599h1v6h-1zM616 599h2v1h-2zM622 599h5v2h-5zM719 599h1v42h-1zM162 600h8v1h-8zM248 600h2v4h-2zM343 600h7v3h-7zM619 600h3v1h-3zM627 600h5v2h-5zM81 601h1v41h-1zM156 601h11v1h-11zM247 601h1v3h-1zM337 601h6v1h-6zM350 601h4v1h-4zM623 601h4v1h-4zM632 601h5v2h-5zM718 601h1v41h-1zM151 602h12v1h-12zM271 602h1v1h-1zM274 602h1v4h-1zM304 602h29v3h-29zM338 602h5v1h-5zM350 602h2v1h-2zM568 602h1v3h-1zM629 602h3v1h-3zM637 602h4v2h-4zM82 603h1v40h-1zM150 603h9v1h-9zM273 603h1v3h-1zM293 603h11v2h-11zM333 603h1v1h-1zM634 603h3v1h-3zM641 603h3v2h-3zM717 603h1v40h-1zM83 604h1v41h-1zM272 604h1v3h-1zM639 604h2v1h-2zM644 604h2v2h-2zM716 604h1v41h-1zM269 605h3v2h-3zM293 605h8v1h-8zM642 605h2v1h-2zM646 605h3v2h-3zM84 606h1v40h-1zM268 606h1v1h-1zM645 606h1v1h-1zM649 606h2v3h-2zM715 606h1v40h-1zM85 607h1v40h-1zM270 607h1v1h-1zM647 607h2v1h-2zM651 607h1v2h-1zM714 607h1v40h-1zM86 609h1v39h-1zM713 609h1v39h-1zM87 610h1v40h-1zM712 610h1v40h-1zM88 612h1v39h-1zM711 612h1v39h-1zM89 613h1v39h-1zM710 613h1v39h-1zM90 615h1v38h-1zM709 615h1v38h-1zM91 616h1v39h-1zM708 616h1v39h-1zM92 617h1v39h-1zM707 617h1v39h-1zM93 619h1v38h-1zM706 619h1v38h-1zM94 620h1v38h-1zM705 620h1v38h-1zM95 622h1v37h-1zM704 622h1v37h-1zM96 623h1v38h-1zM703 623h1v38h-1zM97 624h1v38h-1zM702 624h1v38h-1zM98 626h1v37h-1zM701 626h1v37h-1zM99 627h1v37h-1zM700 627h1v37h-1zM100 628h1v37h-1zM699 628h1v37h-1zM101 630h1v36h-1zM698 630h1v36h-1zM102 631h1v36h-1zM697 631h1v36h-1zM103 632h1v36h-1zM696 632h1v36h-1zM104 633h1v37h-1zM695 633h1v37h-1zM105 635h1v36h-1zM694 635h1v36h-1zM106 636h1v36h-1zM693 636h1v36h-1zM107 637h1v36h-1zM692 637h1v36h-1zM691 638h1v36h-1zM108 639h1v35h-1zM109 640h1v35h-1zM690 640h1v35h-1zM110 641h1v35h-1zM689 641h1v35h-1zM111 642h1v35h-1zM688 642h1v35h-1zM112 643h1v35h-1zM687 643h1v35h-1zM113 644h1v35h-1zM686 644h1v35h-1zM114 646h1v34h-1zM685 646h1v34h-1zM115 647h1v34h-1zM684 647h1v34h-1zM116 648h1v34h-1zM683 648h1v34h-1zM117 649h1v34h-1zM682 649h1v34h-1zM118 650h1v34h-1zM681 650h1v34h-1zM119 651h1v34h-1zM680 651h1v34h-1zM120 652h1v34h-1zM679 652h1v34h-1zM121 654h1v33h-1zM678 654h1v33h-1zM122 655h1v33h-1zM677 655h1v33h-1zM123 656h1v33h-1zM676 656h1v33h-1zM124 657h1v33h-1zM675 657h1v33h-1zM125 658h1v33h-1zM674 658h1v33h-1zM126 659h1v33h-1zM673 659h1v33h-1zM127 660h1v33h-1zM672 660h1v33h-1zM128 661h1v33h-1zM671 661h1v33h-1zM129 662h1v33h-1zM670 662h1v33h-1zM130 663h1v33h-1zM669 663h1v33h-1zM131 664h1v32h-1zM668 664h1v33h-1zM132 665h1v32h-1zM667 665h1v32h-1zM133 666h1v32h-1zM666 666h1v32h-1zM134 667h1v32h-1zM665 667h1v32h-1zM135 668h1v32h-1zM664 668h1v32h-1zM136 669h1v32h-1zM663 669h1v32h-1zM137 670h1v32h-1zM662 670h1v32h-1zM138 671h1v32h-1zM661 671h1v32h-1zM139 672h1v32h-1zM660 672h1v32h-1zM140 673h1v31h-1zM659 673h1v31h-1zM141 674h1v31h-1zM658 674h1v31h-1zM142 675h1v31h-1zM657 675h1v31h-1zM143 676h1v31h-1zM656 676h1v31h-1zM144 677h1v31h-1zM655 677h1v31h-1zM145 678h2v31h-2zM654 678h1v31h-1zM147 679h1v31h-1zM652 679h2v30h-2zM148 680h1v31h-1zM651 680h1v31h-1zM149 681h1v31h-1zM650 681h1v31h-1zM150 682h1v31h-1zM649 682h1v31h-1zM151 683h1v30h-1zM648 683h1v30h-1zM152 684h1v30h-1zM647 684h1v30h-1zM153 685h1v30h-1zM646 685h1v30h-1zM154 686h2v30h-2zM644 686h2v30h-2zM156 687h1v30h-1zM643 687h1v30h-1zM157 688h1v30h-1zM642 688h1v30h-1zM158 689h1v30h-1zM641 689h1v30h-1zM159 690h1v30h-1zM640 690h1v30h-1zM160 691h2v29h-2zM638 691h2v29h-2zM162 692h1v30h-1zM637 692h1v30h-1zM163 693h1v30h-1zM636 693h1v30h-1zM164 694h1v29h-1zM635 694h1v29h-1zM165 695h2v29h-2zM634 695h1v29h-1zM167 696h1v30h-1zM632 696h2v29h-2zM168 697h1v29h-1zM631 697h1v29h-1zM169 698h1v29h-1zM630 698h1v29h-1zM170 699h2v29h-2zM628 699h2v29h-2zM172 700h1v29h-1zM627 700h1v29h-1zM173 701h1v29h-1zM626 701h1v29h-1zM174 702h2v28h-2zM624 702h2v28h-2zM176 703h1v29h-1zM623 703h1v29h-1zM177 704h1v28h-1zM622 704h1v28h-1zM178 705h2v28h-2zM620 705h2v28h-2zM180 706h1v28h-1zM619 706h1v28h-1zM181 707h2v28h-2zM617 707h2v28h-2zM183 708h1v28h-1zM616 708h1v28h-1zM184 709h2v28h-2zM615 709h1v28h-1zM652 709h1v1h-1zM186 710h1v28h-1zM613 710h2v28h-2zM187 711h1v28h-1zM612 711h1v28h-1zM188 712h2v28h-2zM610 712h2v28h-2zM190 713h1v28h-1zM609 713h1v28h-1zM191 714h2v27h-2zM607 714h2v27h-2zM193 715h1v28h-1zM606 715h1v28h-1zM155 716h1v1h-1zM194 716h2v27h-2zM604 716h2v27h-2zM644 716h1v1h-1zM196 717h2v27h-2zM603 717h1v27h-1zM198 718h1v28h-1zM601 718h2v27h-2zM199 719h2v27h-2zM599 719h2v27h-2zM161 720h1v1h-1zM201 720h1v27h-1zM598 720h1v27h-1zM638 720h1v1h-1zM202 721h2v27h-2zM596 721h2v27h-2zM204 722h2v27h-2zM594 722h2v27h-2zM206 723h1v27h-1zM593 723h1v27h-1zM166 724h1v1h-1zM207 724h2v27h-2zM591 724h2v27h-2zM209 725h2v27h-2zM589 725h2v27h-2zM632 725h1v1h-1zM211 726h1v27h-1zM588 726h1v27h-1zM212 727h2v26h-2zM586 727h2v26h-2zM214 728h2v26h-2zM584 728h2v26h-2zM216 729h2v26h-2zM582 729h2v26h-2zM175 730h1v1h-1zM218 730h2v26h-2zM581 730h1v26h-1zM624 730h1v1h-1zM220 731h1v26h-1zM579 731h2v26h-2zM221 732h2v26h-2zM577 732h2v26h-2zM179 733h1v1h-1zM223 733h2v26h-2zM575 733h2v26h-2zM620 733h1v1h-1zM225 734h2v26h-2zM573 734h2v26h-2zM182 735h1v1h-1zM227 735h2v26h-2zM571 735h2v26h-2zM617 735h1v1h-1zM229 736h2v26h-2zM569 736h2v26h-2zM185 737h1v1h-1zM231 737h2v26h-2zM567 737h2v26h-2zM233 738h2v26h-2zM565 738h2v26h-2zM235 739h2v26h-2zM563 739h2v26h-2zM237 740h2v26h-2zM561 740h2v26h-2zM192 741h1v1h-1zM239 741h2v25h-2zM559 741h2v25h-2zM607 741h1v1h-1zM241 742h3v25h-3zM557 742h2v25h-2zM195 743h1v1h-1zM244 743h2v26h-2zM554 743h3v25h-3zM604 743h1v1h-1zM197 744h1v1h-1zM246 744h2v25h-2zM552 744h2v25h-2zM248 745h2v25h-2zM550 745h2v25h-2zM601 745h1v1h-1zM200 746h1v1h-1zM250 746h2v25h-2zM548 746h2v25h-2zM599 746h1v1h-1zM252 747h3v25h-3zM545 747h3v25h-3zM255 748h2v25h-2zM543 748h2v25h-2zM205 749h1v1h-1zM257 749h3v25h-3zM540 749h3v25h-3zM594 749h1v1h-1zM260 750h2v25h-2zM538 750h2v25h-2zM262 751h3v25h-3zM535 751h3v25h-3zM265 752h2v25h-2zM533 752h2v25h-2zM213 753h1v1h-1zM267 753h3v24h-3zM530 753h3v24h-3zM586 753h1v1h-1zM215 754h1v1h-1zM270 754h3v24h-3zM527 754h3v25h-3zM584 754h1v1h-1zM217 755h1v1h-1zM273 755h3v25h-3zM524 755h3v25h-3zM582 755h1v1h-1zM219 756h1v1h-1zM276 756h3v24h-3zM521 756h3v25h-3zM279 757h3v24h-3zM518 757h3v24h-3zM579 757h1v1h-1zM222 758h1v1h-1zM282 758h3v24h-3zM515 758h3v24h-3zM285 759h3v24h-3zM512 759h3v24h-3zM575 759h1v1h-1zM288 760h3v24h-3zM509 760h3v24h-3zM291 761h4v24h-4zM506 761h3v24h-3zM295 762h3v24h-3zM502 762h4v24h-4zM298 763h4v24h-4zM499 763h3v24h-3zM302 764h3v24h-3zM495 764h4v24h-4zM305 765h4v24h-4zM491 765h4v24h-4zM240 766h1v1h-1zM309 766h4v24h-4zM487 766h4v24h-4zM559 766h1v1h-1zM242 767h2v1h-2zM313 767h5v24h-5zM482 767h5v24h-5zM557 767h1v1h-1zM318 768h5v24h-5zM478 768h4v24h-4zM554 768h2v1h-2zM247 769h1v1h-1zM323 769h4v24h-4zM473 769h5v23h-5zM552 769h1v1h-1zM249 770h1v1h-1zM327 770h6v23h-6zM467 770h6v23h-6zM550 770h1v1h-1zM333 771h5v23h-5zM462 771h5v23h-5zM254 772h1v1h-1zM338 772h7v23h-7zM455 772h7v23h-7zM545 772h1v1h-1zM345 773h7v23h-7zM448 773h7v23h-7zM259 774h1v1h-1zM352 774h8v23h-8zM440 774h8v23h-8zM540 774h1v1h-1zM360 775h11v23h-11zM429 775h11v23h-11zM371 776h21v23h-21zM408 776h21v23h-21zM268 777h2v1h-2zM392 777h16v23h-16zM530 777h2v1h-2zM271 778h2v1h-2zM277 780h2v1h-2zM280 781h2v1h-2zM518 781h2v1h-2zM283 782h2v1h-2zM515 782h2v1h-2zM286 783h2v1h-2zM512 783h2v1h-2zM290 784h1v1h-1zM509 784h1v1h-1zM293 785h2v1h-2zM506 785h1v1h-1zM297 786h1v1h-1zM502 786h1v1h-1zM301 787h1v1h-1zM473 792h4v1h-4zM328 793h5v1h-5zM467 793h5v1h-5zM334 794h4v1h-4zM462 794h4v1h-4zM340 795h5v1h-5zM455 795h5v1h-5zM347 796h5v1h-5zM448 796h5v1h-5zM355 797h5v1h-5zM440 797h5v1h-5zM365 798h6v1h-6zM429 798h6v1h-6zM380 799h12v1h-12zM408 799h12v1h-12z"></path></g></svg>